#usda 1.0
(
    defaultPrim = "Tank"
    metersPerUnit = 1
    upAxis = "Z"
)

def Xform "Tank" (
    assetInfo = {
        asset identifier = @flowave_basin@
        string version = "0.1.0-flowave-placeholder"
    }
    kind = "component"
)
{
    def "Looks"
    {
        def Material "ConcreteMat"
        {
            token outputs:mdl:surface.connect = </Tank/Looks/ConcreteMat/Shader.outputs:out>

            def Shader "Shader"
            {
                uniform token info:implementationSource = "sourceAsset"
                uniform asset info:mdl:sourceAsset = @OmniPBR.mdl@
                uniform token info:mdl:sourceAsset:subIdentifier = "OmniPBR"
                color3f inputs:diffuse_color_constant = (0.65, 0.62, 0.58)
                float inputs:metallic_constant = 0
                float inputs:reflection_roughness_constant = 0.85
                token outputs:out
            }
        }

        def Material "FloorSteelMat"
        {
            token outputs:mdl:surface.connect = </Tank/Looks/FloorSteelMat/Shader.outputs:out>

            def Shader "Shader"
            {
                uniform token info:implementationSource = "sourceAsset"
                uniform asset info:mdl:sourceAsset = @OmniPBR.mdl@
                uniform token info:mdl:sourceAsset:subIdentifier = "OmniPBR"
                color3f inputs:diffuse_color_constant = (0.85, 0.85, 0.85)
                float inputs:metallic_constant = 0
                float inputs:reflection_roughness_constant = 0.8
                token outputs:out
            }
        }

        def Material "DarkConcreteMat"
        {
            token outputs:mdl:surface.connect = </Tank/Looks/DarkConcreteMat/Shader.outputs:out>

            def Shader "Shader"
            {
                uniform token info:implementationSource = "sourceAsset"
                uniform asset info:mdl:sourceAsset = @OmniPBR.mdl@
                uniform token info:mdl:sourceAsset:subIdentifier = "OmniPBR"
                color3f inputs:diffuse_color_constant = (0.55, 0.55, 0.55)
                float inputs:metallic_constant = 0
                float inputs:reflection_roughness_constant = 0.9
                token outputs:out
            }
        }
    }

    def Mesh "BasinShell" (
        assetInfo = {
            asset identifier = @flowave_basin_shell@
            string version = "0.1.0-flowave-placeholder"
        }
        kind = "component"
    )
    {
        int[] faceVertexCounts = [4, 4, 4, 4, 4, 4, 4, 4, 4, 4, 4, 4, 4, 4, 4, 4, 4, 4, 4, 4, 4, 4, 4, 4, 4, 4, 4, 4, 4, 4, 4, 4, 4, 4, 4, 4, 4, 4, 4, 4, 4, 4, 4, 4, 4, 4, 4, 4, 4, 4, 4, 4, 4, 4, 4, 4, 4, 4, 4, 4, 4, 4, 4, 4, 4, 4, 4, 4, 4, 4, 4, 4, 4, 4, 4, 4, 4, 4, 4, 4, 4, 4, 4, 4, 4, 4, 4, 4, 4, 4, 4, 4, 4, 4, 4, 4, 4, 4, 4, 4, 4, 4, 4, 4, 4, 4, 4, 4, 4, 4, 4, 4, 4, 4, 4, 4, 4, 4, 4, 4, 4, 4, 4, 4, 4, 4, 4, 4, 4, 4, 4, 4, 4, 4, 4, 4, 4, 4, 4, 4, 4, 4, 4, 4, 4, 4, 4, 4, 4, 4, 4, 4, 4, 4, 4, 4, 4, 4, 4, 4, 4, 4, 4, 4, 4, 4, 4, 4, 4, 4, 4, 4, 4, 4, 4, 4, 4, 4, 4, 4, 4, 4, 4, 4, 4, 4, 4, 4, 4, 4, 4, 4, 4, 4, 4, 4, 4, 4, 4, 4, 4, 4, 4, 4, 4, 4, 4, 4, 4, 4, 4, 4, 4, 4, 4, 4, 4, 4, 4, 4, 4, 4, 4, 4, 4, 4, 4, 4, 4, 4, 4, 4, 4, 4, 4, 4, 4, 4, 4, 4, 4, 4, 4, 4, 4, 4, 4, 4, 4, 4, 4, 4, 4, 4, 4, 4, 4, 4, 4, 4, 4, 4, 4, 4, 4, 4, 4, 4, 4, 4, 4, 4, 4, 4, 4, 4, 4, 4, 4, 4, 4, 4, 4, 4, 4, 4, 4, 4, 4, 4, 4, 4, 4, 4, 4, 4, 4, 4, 4, 4, 4, 4, 4, 4, 4, 4, 4, 4, 4, 4, 4, 4, 4, 4, 4, 4, 4, 4, 4, 4, 4, 4, 4, 4, 4, 4, 4, 4, 4, 4, 4, 4, 4, 4, 4, 4, 4, 4, 4, 4, 4, 4, 4, 4, 4, 4, 4, 4, 4, 4, 4, 4, 4, 4, 4, 4, 4, 4, 4, 4, 4, 4, 4, 4, 4, 4, 4, 4, 4, 4, 4, 4, 4, 4, 4, 4, 4, 4, 4, 4, 4, 4, 4, 4, 4, 4, 4, 4, 4, 4, 4, 4, 4, 4, 4, 4, 4, 4, 4, 4, 4, 4, 4, 4, 4, 4, 4, 4, 4, 4, 4, 4, 4, 4, 4, 4, 4, 4, 4, 4, 4, 4, 4, 4, 4, 4, 4, 4, 4, 4, 4, 4, 4, 4, 4, 4, 4, 4, 4, 4, 4, 4, 4, 4, 4, 4, 4, 4, 4, 4, 4, 4, 4, 4, 4, 4, 4, 4, 4, 4, 4, 4, 4, 4, 4, 4, 4, 4, 4, 4, 4, 4, 4, 4, 4, 4, 4, 4, 4, 4, 4, 4, 4, 4, 4, 4, 4, 4, 4, 4, 4, 4, 4, 4, 4, 4, 4, 4, 4, 4, 4, 4, 4, 4, 4, 4, 4, 4, 4, 4, 4, 4]
        int[] faceVertexIndices = [0, 64, 65, 1, 128, 129, 193, 192, 0, 1, 129, 128, 64, 192, 193, 65, 1, 65, 66, 2, 129, 130, 194, 193, 1, 2, 130, 129, 65, 193, 194, 66, 2, 66, 67, 3, 130, 131, 195, 194, 2, 3, 131, 130, 66, 194, 195, 67, 3, 67, 68, 4, 131, 132, 196, 195, 3, 4, 132, 131, 67, 195, 196, 68, 4, 68, 69, 5, 132, 133, 197, 196, 4, 5, 133, 132, 68, 196, 197, 69, 5, 69, 70, 6, 133, 134, 198, 197, 5, 6, 134, 133, 69, 197, 198, 70, 6, 70, 71, 7, 134, 135, 199, 198, 6, 7, 135, 134, 70, 198, 199, 71, 7, 71, 72, 8, 135, 136, 200, 199, 7, 8, 136, 135, 71, 199, 200, 72, 8, 72, 73, 9, 136, 137, 201, 200, 8, 9, 137, 136, 72, 200, 201, 73, 9, 73, 74, 10, 137, 138, 202, 201, 9, 10, 138, 137, 73, 201, 202, 74, 10, 74, 75, 11, 138, 139, 203, 202, 10, 11, 139, 138, 74, 202, 203, 75, 11, 75, 76, 12, 139, 140, 204, 203, 11, 12, 140, 139, 75, 203, 204, 76, 12, 76, 77, 13, 140, 141, 205, 204, 12, 13, 141, 140, 76, 204, 205, 77, 13, 77, 78, 14, 141, 142, 206, 205, 13, 14, 142, 141, 77, 205, 206, 78, 14, 78, 79, 15, 142, 143, 207, 206, 14, 15, 143, 142, 78, 206, 207, 79, 15, 79, 80, 16, 143, 144, 208, 207, 15, 16, 144, 143, 79, 207, 208, 80, 16, 80, 81, 17, 144, 145, 209, 208, 16, 17, 145, 144, 80, 208, 209, 81, 17, 81, 82, 18, 145, 146, 210, 209, 17, 18, 146, 145, 81, 209, 210, 82, 18, 82, 83, 19, 146, 147, 211, 210, 18, 19, 147, 146, 82, 210, 211, 83, 19, 83, 84, 20, 147, 148, 212, 211, 19, 20, 148, 147, 83, 211, 212, 84, 20, 84, 85, 21, 148, 149, 213, 212, 20, 21, 149, 148, 84, 212, 213, 85, 21, 85, 86, 22, 149, 150, 214, 213, 21, 22, 150, 149, 85, 213, 214, 86, 22, 86, 87, 23, 150, 151, 215, 214, 22, 23, 151, 150, 86, 214, 215, 87, 23, 87, 88, 24, 151, 152, 216, 215, 23, 24, 152, 151, 87, 215, 216, 88, 24, 88, 89, 25, 152, 153, 217, 216, 24, 25, 153, 152, 88, 216, 217, 89, 25, 89, 90, 26, 153, 154, 218, 217, 25, 26, 154, 153, 89, 217, 218, 90, 26, 90, 91, 27, 154, 155, 219, 218, 26, 27, 155, 154, 90, 218, 219, 91, 27, 91, 92, 28, 155, 156, 220, 219, 27, 28, 156, 155, 91, 219, 220, 92, 28, 92, 93, 29, 156, 157, 221, 220, 28, 29, 157, 156, 92, 220, 221, 93, 29, 93, 94, 30, 157, 158, 222, 221, 29, 30, 158, 157, 93, 221, 222, 94, 30, 94, 95, 31, 158, 159, 223, 222, 30, 31, 159, 158, 94, 222, 223, 95, 31, 95, 96, 32, 159, 160, 224, 223, 31, 32, 160, 159, 95, 223, 224, 96, 32, 96, 97, 33, 160, 161, 225, 224, 32, 33, 161, 160, 96, 224, 225, 97, 33, 97, 98, 34, 161, 162, 226, 225, 33, 34, 162, 161, 97, 225, 226, 98, 34, 98, 99, 35, 162, 163, 227, 226, 34, 35, 163, 162, 98, 226, 227, 99, 35, 99, 100, 36, 163, 164, 228, 227, 35, 36, 164, 163, 99, 227, 228, 100, 36, 100, 101, 37, 164, 165, 229, 228, 36, 37, 165, 164, 100, 228, 229, 101, 37, 101, 102, 38, 165, 166, 230, 229, 37, 38, 166, 165, 101, 229, 230, 102, 38, 102, 103, 39, 166, 167, 231, 230, 38, 39, 167, 166, 102, 230, 231, 103, 39, 103, 104, 40, 167, 168, 232, 231, 39, 40, 168, 167, 103, 231, 232, 104, 40, 104, 105, 41, 168, 169, 233, 232, 40, 41, 169, 168, 104, 232, 233, 105, 41, 105, 106, 42, 169, 170, 234, 233, 41, 42, 170, 169, 105, 233, 234, 106, 42, 106, 107, 43, 170, 171, 235, 234, 42, 43, 171, 170, 106, 234, 235, 107, 43, 107, 108, 44, 171, 172, 236, 235, 43, 44, 172, 171, 107, 235, 236, 108, 44, 108, 109, 45, 172, 173, 237, 236, 44, 45, 173, 172, 108, 236, 237, 109, 45, 109, 110, 46, 173, 174, 238, 237, 45, 46, 174, 173, 109, 237, 238, 110, 46, 110, 111, 47, 174, 175, 239, 238, 46, 47, 175, 174, 110, 238, 239, 111, 47, 111, 112, 48, 175, 176, 240, 239, 47, 48, 176, 175, 111, 239, 240, 112, 48, 112, 113, 49, 176, 177, 241, 240, 48, 49, 177, 176, 112, 240, 241, 113, 49, 113, 114, 50, 177, 178, 242, 241, 49, 50, 178, 177, 113, 241, 242, 114, 50, 114, 115, 51, 178, 179, 243, 242, 50, 51, 179, 178, 114, 242, 243, 115, 51, 115, 116, 52, 179, 180, 244, 243, 51, 52, 180, 179, 115, 243, 244, 116, 52, 116, 117, 53, 180, 181, 245, 244, 52, 53, 181, 180, 116, 244, 245, 117, 53, 117, 118, 54, 181, 182, 246, 245, 53, 54, 182, 181, 117, 245, 246, 118, 54, 118, 119, 55, 182, 183, 247, 246, 54, 55, 183, 182, 118, 246, 247, 119, 55, 119, 120, 56, 183, 184, 248, 247, 55, 56, 184, 183, 119, 247, 248, 120, 56, 120, 121, 57, 184, 185, 249, 248, 56, 57, 185, 184, 120, 248, 249, 121, 57, 121, 122, 58, 185, 186, 250, 249, 57, 58, 186, 185, 121, 249, 250, 122, 58, 122, 123, 59, 186, 187, 251, 250, 58, 59, 187, 186, 122, 250, 251, 123, 59, 123, 124, 60, 187, 188, 252, 251, 59, 60, 188, 187, 123, 251, 252, 124, 60, 124, 125, 61, 188, 189, 253, 252, 60, 61, 189, 188, 124, 252, 253, 125, 61, 125, 126, 62, 189, 190, 254, 253, 61, 62, 190, 189, 125, 253, 254, 126, 62, 126, 127, 63, 190, 191, 255, 254, 62, 63, 191, 190, 126, 254, 255, 127, 63, 127, 64, 0, 191, 128, 192, 255, 63, 0, 128, 191, 127, 255, 192, 64, 256, 320, 321, 257, 384, 385, 449, 448, 256, 257, 385, 384, 320, 448, 449, 321, 257, 321, 322, 258, 385, 386, 450, 449, 257, 258, 386, 385, 321, 449, 450, 322, 258, 322, 323, 259, 386, 387, 451, 450, 258, 259, 387, 386, 322, 450, 451, 323, 259, 323, 324, 260, 387, 388, 452, 451, 259, 260, 388, 387, 323, 451, 452, 324, 260, 324, 325, 261, 388, 389, 453, 452, 260, 261, 389, 388, 324, 452, 453, 325, 261, 325, 326, 262, 389, 390, 454, 453, 261, 262, 390, 389, 325, 453, 454, 326, 262, 326, 327, 263, 390, 391, 455, 454, 262, 263, 391, 390, 326, 454, 455, 327, 263, 327, 328, 264, 391, 392, 456, 455, 263, 264, 392, 391, 327, 455, 456, 328, 264, 328, 329, 265, 392, 393, 457, 456, 264, 265, 393, 392, 328, 456, 457, 329, 265, 329, 330, 266, 393, 394, 458, 457, 265, 266, 394, 393, 329, 457, 458, 330, 266, 330, 331, 267, 394, 395, 459, 458, 266, 267, 395, 394, 330, 458, 459, 331, 267, 331, 332, 268, 395, 396, 460, 459, 267, 268, 396, 395, 331, 459, 460, 332, 268, 332, 333, 269, 396, 397, 461, 460, 268, 269, 397, 396, 332, 460, 461, 333, 269, 333, 334, 270, 397, 398, 462, 461, 269, 270, 398, 397, 333, 461, 462, 334, 270, 334, 335, 271, 398, 399, 463, 462, 270, 271, 399, 398, 334, 462, 463, 335, 271, 335, 336, 272, 399, 400, 464, 463, 271, 272, 400, 399, 335, 463, 464, 336, 272, 336, 337, 273, 400, 401, 465, 464, 272, 273, 401, 400, 336, 464, 465, 337, 273, 337, 338, 274, 401, 402, 466, 465, 273, 274, 402, 401, 337, 465, 466, 338, 274, 338, 339, 275, 402, 403, 467, 466, 274, 275, 403, 402, 338, 466, 467, 339, 275, 339, 340, 276, 403, 404, 468, 467, 275, 276, 404, 403, 339, 467, 468, 340, 276, 340, 341, 277, 404, 405, 469, 468, 276, 277, 405, 404, 340, 468, 469, 341, 277, 341, 342, 278, 405, 406, 470, 469, 277, 278, 406, 405, 341, 469, 470, 342, 278, 342, 343, 279, 406, 407, 471, 470, 278, 279, 407, 406, 342, 470, 471, 343, 279, 343, 344, 280, 407, 408, 472, 471, 279, 280, 408, 407, 343, 471, 472, 344, 280, 344, 345, 281, 408, 409, 473, 472, 280, 281, 409, 408, 344, 472, 473, 345, 281, 345, 346, 282, 409, 410, 474, 473, 281, 282, 410, 409, 345, 473, 474, 346, 282, 346, 347, 283, 410, 411, 475, 474, 282, 283, 411, 410, 346, 474, 475, 347, 283, 347, 348, 284, 411, 412, 476, 475, 283, 284, 412, 411, 347, 475, 476, 348, 284, 348, 349, 285, 412, 413, 477, 476, 284, 285, 413, 412, 348, 476, 477, 349, 285, 349, 350, 286, 413, 414, 478, 477, 285, 286, 414, 413, 349, 477, 478, 350, 286, 350, 351, 287, 414, 415, 479, 478, 286, 287, 415, 414, 350, 478, 479, 351, 287, 351, 352, 288, 415, 416, 480, 479, 287, 288, 416, 415, 351, 479, 480, 352, 288, 352, 353, 289, 416, 417, 481, 480, 288, 289, 417, 416, 352, 480, 481, 353, 289, 353, 354, 290, 417, 418, 482, 481, 289, 290, 418, 417, 353, 481, 482, 354, 290, 354, 355, 291, 418, 419, 483, 482, 290, 291, 419, 418, 354, 482, 483, 355, 291, 355, 356, 292, 419, 420, 484, 483, 291, 292, 420, 419, 355, 483, 484, 356, 292, 356, 357, 293, 420, 421, 485, 484, 292, 293, 421, 420, 356, 484, 485, 357, 293, 357, 358, 294, 421, 422, 486, 485, 293, 294, 422, 421, 357, 485, 486, 358, 294, 358, 359, 295, 422, 423, 487, 486, 294, 295, 423, 422, 358, 486, 487, 359, 295, 359, 360, 296, 423, 424, 488, 487, 295, 296, 424, 423, 359, 487, 488, 360, 296, 360, 361, 297, 424, 425, 489, 488, 296, 297, 425, 424, 360, 488, 489, 361, 297, 361, 362, 298, 425, 426, 490, 489, 297, 298, 426, 425, 361, 489, 490, 362, 298, 362, 363, 299, 426, 427, 491, 490, 298, 299, 427, 426, 362, 490, 491, 363, 299, 363, 364, 300, 427, 428, 492, 491, 299, 300, 428, 427, 363, 491, 492, 364, 300, 364, 365, 301, 428, 429, 493, 492, 300, 301, 429, 428, 364, 492, 493, 365, 301, 365, 366, 302, 429, 430, 494, 493, 301, 302, 430, 429, 365, 493, 494, 366, 302, 366, 367, 303, 430, 431, 495, 494, 302, 303, 431, 430, 366, 494, 495, 367, 303, 367, 368, 304, 431, 432, 496, 495, 303, 304, 432, 431, 367, 495, 496, 368, 304, 368, 369, 305, 432, 433, 497, 496, 304, 305, 433, 432, 368, 496, 497, 369, 305, 369, 370, 306, 433, 434, 498, 497, 305, 306, 434, 433, 369, 497, 498, 370, 306, 370, 371, 307, 434, 435, 499, 498, 306, 307, 435, 434, 370, 498, 499, 371, 307, 371, 372, 308, 435, 436, 500, 499, 307, 308, 436, 435, 371, 499, 500, 372, 308, 372, 373, 309, 436, 437, 501, 500, 308, 309, 437, 436, 372, 500, 501, 373, 309, 373, 374, 310, 437, 438, 502, 501, 309, 310, 438, 437, 373, 501, 502, 374, 310, 374, 375, 311, 438, 439, 503, 502, 310, 311, 439, 438, 374, 502, 503, 375, 311, 375, 376, 312, 439, 440, 504, 503, 311, 312, 440, 439, 375, 503, 504, 376, 312, 376, 377, 313, 440, 441, 505, 504, 312, 313, 441, 440, 376, 504, 505, 377, 313, 377, 378, 314, 441, 442, 506, 505, 313, 314, 442, 441, 377, 505, 506, 378, 314, 378, 379, 315, 442, 443, 507, 506, 314, 315, 443, 442, 378, 506, 507, 379, 315, 379, 380, 316, 443, 444, 508, 507, 315, 316, 444, 443, 379, 507, 508, 380, 316, 380, 381, 317, 444, 445, 509, 508, 316, 317, 445, 444, 380, 508, 509, 381, 317, 381, 382, 318, 445, 446, 510, 509, 317, 318, 446, 445, 381, 509, 510, 382, 318, 382, 383, 319, 446, 447, 511, 510, 318, 319, 447, 446, 382, 510, 511, 383, 319, 383, 320, 256, 447, 384, 448, 511, 319, 256, 384, 447, 383, 511, 448, 320]
        rel material:binding = </Tank/Looks/ConcreteMat>
        point3f[] points = [(15, 0, 2), (14.927771, 1.4702572, 2), (14.71178, 2.926355, 2), (14.354105, 4.35427, 2), (13.858193, 5.7402515, 2), (13.228819, 7.070951, 2), (12.472044, 8.333553, 2), (11.595157, 9.5159, 2), (10.606602, 10.606602, 2), (9.5159, 11.595157, 2), (8.333553, 12.472044, 2), (7.070951, 13.228819, 2), (5.7402515, 13.858193, 2), (4.35427, 14.354105, 2), (2.926355, 14.71178, 2), (1.4702572, 14.927771, 2), (9.18485e-16, 15, 2), (-1.4702572, 14.927771, 2), (-2.926355, 14.71178, 2), (-4.35427, 14.354105, 2), (-5.7402515, 13.858193, 2), (-7.070951, 13.228819, 2), (-8.333553, 12.472044, 2), (-9.5159, 11.595157, 2), (-10.606602, 10.606602, 2), (-11.595157, 9.5159, 2), (-12.472044, 8.333553, 2), (-13.228819, 7.070951, 2), (-13.858193, 5.7402515, 2), (-14.354105, 4.35427, 2), (-14.71178, 2.926355, 2), (-14.927771, 1.4702572, 2), (-15, 1.83697e-15, 2), (-14.927771, -1.4702572, 2), (-14.71178, -2.926355, 2), (-14.354105, -4.35427, 2), (-13.858193, -5.7402515, 2), (-13.228819, -7.070951, 2), (-12.472044, -8.333553, 2), (-11.595157, -9.5159, 2), (-10.606602, -10.606602, 2), (-9.5159, -11.595157, 2), (-8.333553, -12.472044, 2), (-7.070951, -13.228819, 2), (-5.7402515, -13.858193, 2), (-4.35427, -14.354105, 2), (-2.926355, -14.71178, 2), (-1.4702572, -14.927771, 2), (-2.7554554e-15, -15, 2), (1.4702572, -14.927771, 2), (2.926355, -14.71178, 2), (4.35427, -14.354105, 2), (5.7402515, -13.858193, 2), (7.070951, -13.228819, 2), (8.333553, -12.472044, 2), (9.5159, -11.595157, 2), (10.606602, -10.606602, 2), (11.595157, -9.5159, 2), (12.472044, -8.333553, 2), (13.228819, -7.070951, 2), (13.858193, -5.7402515, 2), (14.354105, -4.35427, 2), (14.71178, -2.926355, 2), (14.927771, -1.4702572, 2), (15, 0, 5), (14.927771, 1.4702572, 5), (14.71178, 2.926355, 5), (14.354105, 4.35427, 5), (13.858193, 5.7402515, 5), (13.228819, 7.070951, 5), (12.472044, 8.333553, 5), (11.595157, 9.5159, 5), (10.606602, 10.606602, 5), (9.5159, 11.595157, 5), (8.333553, 12.472044, 5), (7.070951, 13.228819, 5), (5.7402515, 13.858193, 5), (4.35427, 14.354105, 5), (2.926355, 14.71178, 5), (1.4702572, 14.927771, 5), (9.18485e-16, 15, 5), (-1.4702572, 14.927771, 5), (-2.926355, 14.71178, 5), (-4.35427, 14.354105, 5), (-5.7402515, 13.858193, 5), (-7.070951, 13.228819, 5), (-8.333553, 12.472044, 5), (-9.5159, 11.595157, 5), (-10.606602, 10.606602, 5), (-11.595157, 9.5159, 5), (-12.472044, 8.333553, 5), (-13.228819, 7.070951, 5), (-13.858193, 5.7402515, 5), (-14.354105, 4.35427, 5), (-14.71178, 2.926355, 5), (-14.927771, 1.4702572, 5), (-15, 1.83697e-15, 5), (-14.927771, -1.4702572, 5), (-14.71178, -2.926355, 5), (-14.354105, -4.35427, 5), (-13.858193, -5.7402515, 5), (-13.228819, -7.070951, 5), (-12.472044, -8.333553, 5), (-11.595157, -9.5159, 5), (-10.606602, -10.606602, 5), (-9.5159, -11.595157, 5), (-8.333553, -12.472044, 5), (-7.070951, -13.228819, 5), (-5.7402515, -13.858193, 5), (-4.35427, -14.354105, 5), (-2.926355, -14.71178, 5), (-1.4702572, -14.927771, 5), (-2.7554554e-15, -15, 5), (1.4702572, -14.927771, 5), (2.926355, -14.71178, 5), (4.35427, -14.354105, 5), (5.7402515, -13.858193, 5), (7.070951, -13.228819, 5), (8.333553, -12.472044, 5), (9.5159, -11.595157, 5), (10.606602, -10.606602, 5), (11.595157, -9.5159, 5), (12.472044, -8.333553, 5), (13.228819, -7.070951, 5), (13.858193, -5.7402515, 5), (14.354105, -4.35427, 5), (14.71178, -2.926355, 5), (14.927771, -1.4702572, 5), (14.8, 0, 2), (14.728734, 1.4506537, 2), (14.515622, 2.8873367, 2), (14.162717, 4.296213, 2), (13.673417, 5.663715, 2), (13.052435, 6.9766717, 2), (12.30575, 8.22244, 2), (11.440555, 9.389021, 2), (10.46518, 10.46518, 2), (9.389021, 11.440555, 2), (8.22244, 12.30575, 2), (6.9766717, 13.052435, 2), (5.663715, 13.673417, 2), (4.296213, 14.162717, 2), (2.8873367, 14.515622, 2), (1.4506537, 14.728734, 2), (9.062386e-16, 14.8, 2), (-1.4506537, 14.728734, 2), (-2.8873367, 14.515622, 2), (-4.296213, 14.162717, 2), (-5.663715, 13.673417, 2), (-6.9766717, 13.052435, 2), (-8.22244, 12.30575, 2), (-9.389021, 11.440555, 2), (-10.46518, 10.46518, 2), (-11.440555, 9.389021, 2), (-12.30575, 8.22244, 2), (-13.052435, 6.9766717, 2), (-13.673417, 5.663715, 2), (-14.162717, 4.296213, 2), (-14.515622, 2.8873367, 2), (-14.728734, 1.4506537, 2), (-14.8, 1.8124773e-15, 2), (-14.728734, -1.4506537, 2), (-14.515622, -2.8873367, 2), (-14.162717, -4.296213, 2), (-13.673417, -5.663715, 2), (-13.052435, -6.9766717, 2), (-12.30575, -8.22244, 2), (-11.440555, -9.389021, 2), (-10.46518, -10.46518, 2), (-9.389021, -11.440555, 2), (-8.22244, -12.30575, 2), (-6.9766717, -13.052435, 2), (-5.663715, -13.673417, 2), (-4.296213, -14.162717, 2), (-2.8873367, -14.515622, 2), (-1.4506537, -14.728734, 2), (-2.718716e-15, -14.8, 2), (1.4506537, -14.728734, 2), (2.8873367, -14.515622, 2), (4.296213, -14.162717, 2), (5.663715, -13.673417, 2), (6.9766717, -13.052435, 2), (8.22244, -12.30575, 2), (9.389021, -11.440555, 2), (10.46518, -10.46518, 2), (11.440555, -9.389021, 2), (12.30575, -8.22244, 2), (13.052435, -6.9766717, 2), (13.673417, -5.663715, 2), (14.162717, -4.296213, 2), (14.515622, -2.8873367, 2), (14.728734, -1.4506537, 2), (14.8, 0, 5), (14.728734, 1.4506537, 5), (14.515622, 2.8873367, 5), (14.162717, 4.296213, 5), (13.673417, 5.663715, 5), (13.052435, 6.9766717, 5), (12.30575, 8.22244, 5), (11.440555, 9.389021, 5), (10.46518, 10.46518, 5), (9.389021, 11.440555, 5), (8.22244, 12.30575, 5), (6.9766717, 13.052435, 5), (5.663715, 13.673417, 5), (4.296213, 14.162717, 5), (2.8873367, 14.515622, 5), (1.4506537, 14.728734, 5), (9.062386e-16, 14.8, 5), (-1.4506537, 14.728734, 5), (-2.8873367, 14.515622, 5), (-4.296213, 14.162717, 5), (-5.663715, 13.673417, 5), (-6.9766717, 13.052435, 5), (-8.22244, 12.30575, 5), (-9.389021, 11.440555, 5), (-10.46518, 10.46518, 5), (-11.440555, 9.389021, 5), (-12.30575, 8.22244, 5), (-13.052435, 6.9766717, 5), (-13.673417, 5.663715, 5), (-14.162717, 4.296213, 5), (-14.515622, 2.8873367, 5), (-14.728734, 1.4506537, 5), (-14.8, 1.8124773e-15, 5), (-14.728734, -1.4506537, 5), (-14.515622, -2.8873367, 5), (-14.162717, -4.296213, 5), (-13.673417, -5.663715, 5), (-13.052435, -6.9766717, 5), (-12.30575, -8.22244, 5), (-11.440555, -9.389021, 5), (-10.46518, -10.46518, 5), (-9.389021, -11.440555, 5), (-8.22244, -12.30575, 5), (-6.9766717, -13.052435, 5), (-5.663715, -13.673417, 5), (-4.296213, -14.162717, 5), (-2.8873367, -14.515622, 5), (-1.4506537, -14.728734, 5), (-2.718716e-15, -14.8, 5), (1.4506537, -14.728734, 5), (2.8873367, -14.515622, 5), (4.296213, -14.162717, 5), (5.663715, -13.673417, 5), (6.9766717, -13.052435, 5), (8.22244, -12.30575, 5), (9.389021, -11.440555, 5), (10.46518, -10.46518, 5), (11.440555, -9.389021, 5), (12.30575, -8.22244, 5), (13.052435, -6.9766717, 5), (13.673417, -5.663715, 5), (14.162717, -4.296213, 5), (14.515622, -2.8873367, 5), (14.728734, -1.4506537, 5), (15, 0, 0), (14.927771, 1.4702572, 0), (14.71178, 2.926355, 0), (14.354105, 4.35427, 0), (13.858193, 5.7402515, 0), (13.228819, 7.070951, 0), (12.472044, 8.333553, 0), (11.595157, 9.5159, 0), (10.606602, 10.606602, 0), (9.5159, 11.595157, 0), (8.333553, 12.472044, 0), (7.070951, 13.228819, 0), (5.7402515, 13.858193, 0), (4.35427, 14.354105, 0), (2.926355, 14.71178, 0), (1.4702572, 14.927771, 0), (9.18485e-16, 15, 0), (-1.4702572, 14.927771, 0), (-2.926355, 14.71178, 0), (-4.35427, 14.354105, 0), (-5.7402515, 13.858193, 0), (-7.070951, 13.228819, 0), (-8.333553, 12.472044, 0), (-9.5159, 11.595157, 0), (-10.606602, 10.606602, 0), (-11.595157, 9.5159, 0), (-12.472044, 8.333553, 0), (-13.228819, 7.070951, 0), (-13.858193, 5.7402515, 0), (-14.354105, 4.35427, 0), (-14.71178, 2.926355, 0), (-14.927771, 1.4702572, 0), (-15, 1.83697e-15, 0), (-14.927771, -1.4702572, 0), (-14.71178, -2.926355, 0), (-14.354105, -4.35427, 0), (-13.858193, -5.7402515, 0), (-13.228819, -7.070951, 0), (-12.472044, -8.333553, 0), (-11.595157, -9.5159, 0), (-10.606602, -10.606602, 0), (-9.5159, -11.595157, 0), (-8.333553, -12.472044, 0), (-7.070951, -13.228819, 0), (-5.7402515, -13.858193, 0), (-4.35427, -14.354105, 0), (-2.926355, -14.71178, 0), (-1.4702572, -14.927771, 0), (-2.7554554e-15, -15, 0), (1.4702572, -14.927771, 0), (2.926355, -14.71178, 0), (4.35427, -14.354105, 0), (5.7402515, -13.858193, 0), (7.070951, -13.228819, 0), (8.333553, -12.472044, 0), (9.5159, -11.595157, 0), (10.606602, -10.606602, 0), (11.595157, -9.5159, 0), (12.472044, -8.333553, 0), (13.228819, -7.070951, 0), (13.858193, -5.7402515, 0), (14.354105, -4.35427, 0), (14.71178, -2.926355, 0), (14.927771, -1.4702572, 0), (15, 0, 2), (14.927771, 1.4702572, 2), (14.71178, 2.926355, 2), (14.354105, 4.35427, 2), (13.858193, 5.7402515, 2), (13.228819, 7.070951, 2), (12.472044, 8.333553, 2), (11.595157, 9.5159, 2), (10.606602, 10.606602, 2), (9.5159, 11.595157, 2), (8.333553, 12.472044, 2), (7.070951, 13.228819, 2), (5.7402515, 13.858193, 2), (4.35427, 14.354105, 2), (2.926355, 14.71178, 2), (1.4702572, 14.927771, 2), (9.18485e-16, 15, 2), (-1.4702572, 14.927771, 2), (-2.926355, 14.71178, 2), (-4.35427, 14.354105, 2), (-5.7402515, 13.858193, 2), (-7.070951, 13.228819, 2), (-8.333553, 12.472044, 2), (-9.5159, 11.595157, 2), (-10.606602, 10.606602, 2), (-11.595157, 9.5159, 2), (-12.472044, 8.333553, 2), (-13.228819, 7.070951, 2), (-13.858193, 5.7402515, 2), (-14.354105, 4.35427, 2), (-14.71178, 2.926355, 2), (-14.927771, 1.4702572, 2), (-15, 1.83697e-15, 2), (-14.927771, -1.4702572, 2), (-14.71178, -2.926355, 2), (-14.354105, -4.35427, 2), (-13.858193, -5.7402515, 2), (-13.228819, -7.070951, 2), (-12.472044, -8.333553, 2), (-11.595157, -9.5159, 2), (-10.606602, -10.606602, 2), (-9.5159, -11.595157, 2), (-8.333553, -12.472044, 2), (-7.070951, -13.228819, 2), (-5.7402515, -13.858193, 2), (-4.35427, -14.354105, 2), (-2.926355, -14.71178, 2), (-1.4702572, -14.927771, 2), (-2.7554554e-15, -15, 2), (1.4702572, -14.927771, 2), (2.926355, -14.71178, 2), (4.35427, -14.354105, 2), (5.7402515, -13.858193, 2), (7.070951, -13.228819, 2), (8.333553, -12.472044, 2), (9.5159, -11.595157, 2), (10.606602, -10.606602, 2), (11.595157, -9.5159, 2), (12.472044, -8.333553, 2), (13.228819, -7.070951, 2), (13.858193, -5.7402515, 2), (14.354105, -4.35427, 2), (14.71178, -2.926355, 2), (14.927771, -1.4702572, 2), (12.5, 0, 0), (12.439809, 1.2252142, 0), (12.259816, 2.438629, 0), (11.961754, 3.6285584, 0), (11.548494, 4.783543, 0), (11.024015, 5.8924594, 0), (10.393371, 6.944628, 0), (9.662631, 7.929916, 0), (8.838835, 8.838835, 0), (7.929916, 9.662631, 0), (6.944628, 10.393371, 0), (5.8924594, 11.024015, 0), (4.783543, 11.548494, 0), (3.6285584, 11.961754, 0), (2.438629, 12.259816, 0), (1.2252142, 12.439809, 0), (7.654042e-16, 12.5, 0), (-1.2252142, 12.439809, 0), (-2.438629, 12.259816, 0), (-3.6285584, 11.961754, 0), (-4.783543, 11.548494, 0), (-5.8924594, 11.024015, 0), (-6.944628, 10.393371, 0), (-7.929916, 9.662631, 0), (-8.838835, 8.838835, 0), (-9.662631, 7.929916, 0), (-10.393371, 6.944628, 0), (-11.024015, 5.8924594, 0), (-11.548494, 4.783543, 0), (-11.961754, 3.6285584, 0), (-12.259816, 2.438629, 0), (-12.439809, 1.2252142, 0), (-12.5, 1.5308084e-15, 0), (-12.439809, -1.2252142, 0), (-12.259816, -2.438629, 0), (-11.961754, -3.6285584, 0), (-11.548494, -4.783543, 0), (-11.024015, -5.8924594, 0), (-10.393371, -6.944628, 0), (-9.662631, -7.929916, 0), (-8.838835, -8.838835, 0), (-7.929916, -9.662631, 0), (-6.944628, -10.393371, 0), (-5.8924594, -11.024015, 0), (-4.783543, -11.548494, 0), (-3.6285584, -11.961754, 0), (-2.438629, -12.259816, 0), (-1.2252142, -12.439809, 0), (-2.2962127e-15, -12.5, 0), (1.2252142, -12.439809, 0), (2.438629, -12.259816, 0), (3.6285584, -11.961754, 0), (4.783543, -11.548494, 0), (5.8924594, -11.024015, 0), (6.944628, -10.393371, 0), (7.929916, -9.662631, 0), (8.838835, -8.838835, 0), (9.662631, -7.929916, 0), (10.393371, -6.944628, 0), (11.024015, -5.8924594, 0), (11.548494, -4.783543, 0), (11.961754, -3.6285584, 0), (12.259816, -2.438629, 0), (12.439809, -1.2252142, 0), (12.5, 0, 2), (12.439809, 1.2252142, 2), (12.259816, 2.438629, 2), (11.961754, 3.6285584, 2), (11.548494, 4.783543, 2), (11.024015, 5.8924594, 2), (10.393371, 6.944628, 2), (9.662631, 7.929916, 2), (8.838835, 8.838835, 2), (7.929916, 9.662631, 2), (6.944628, 10.393371, 2), (5.8924594, 11.024015, 2), (4.783543, 11.548494, 2), (3.6285584, 11.961754, 2), (2.438629, 12.259816, 2), (1.2252142, 12.439809, 2), (7.654042e-16, 12.5, 2), (-1.2252142, 12.439809, 2), (-2.438629, 12.259816, 2), (-3.6285584, 11.961754, 2), (-4.783543, 11.548494, 2), (-5.8924594, 11.024015, 2), (-6.944628, 10.393371, 2), (-7.929916, 9.662631, 2), (-8.838835, 8.838835, 2), (-9.662631, 7.929916, 2), (-10.393371, 6.944628, 2), (-11.024015, 5.8924594, 2), (-11.548494, 4.783543, 2), (-11.961754, 3.6285584, 2), (-12.259816, 2.438629, 2), (-12.439809, 1.2252142, 2), (-12.5, 1.5308084e-15, 2), (-12.439809, -1.2252142, 2), (-12.259816, -2.438629, 2), (-11.961754, -3.6285584, 2), (-11.548494, -4.783543, 2), (-11.024015, -5.8924594, 2), (-10.393371, -6.944628, 2), (-9.662631, -7.929916, 2), (-8.838835, -8.838835, 2), (-7.929916, -9.662631, 2), (-6.944628, -10.393371, 2), (-5.8924594, -11.024015, 2), (-4.783543, -11.548494, 2), (-3.6285584, -11.961754, 2), (-2.438629, -12.259816, 2), (-1.2252142, -12.439809, 2), (-2.2962127e-15, -12.5, 2), (1.2252142, -12.439809, 2), (2.438629, -12.259816, 2), (3.6285584, -11.961754, 2), (4.783543, -11.548494, 2), (5.8924594, -11.024015, 2), (6.944628, -10.393371, 2), (7.929916, -9.662631, 2), (8.838835, -8.838835, 2), (9.662631, -7.929916, 2), (10.393371, -6.944628, 2), (11.024015, -5.8924594, 2), (11.548494, -4.783543, 2), (11.961754, -3.6285584, 2), (12.259816, -2.438629, 2), (12.439809, -1.2252142, 2)]
        uniform token subdivisionScheme = "none"
    }

    def Mesh "WorkingWall" (
        assetInfo = {
            asset identifier = @flowave_working_wall@
            string version = "0.1.0-flowave-placeholder"
        }
        kind = "component"
    )
    {
        int[] faceVertexCounts = [4, 4, 4, 4, 4, 4, 4, 4, 4, 4, 4, 4, 4, 4, 4, 4, 4, 4, 4, 4, 4, 4, 4, 4, 4, 4, 4, 4, 4, 4, 4, 4, 4, 4, 4, 4, 4, 4, 4, 4, 4, 4, 4, 4, 4, 4, 4, 4, 4, 4, 4, 4, 4, 4, 4, 4, 4, 4, 4, 4, 4, 4, 4, 4, 4, 4, 4, 4, 4, 4, 4, 4, 4, 4, 4, 4, 4, 4, 4, 4, 4, 4, 4, 4, 4, 4, 4, 4, 4, 4, 4, 4, 4, 4, 4, 4, 4, 4, 4, 4, 4, 4, 4, 4, 4, 4, 4, 4, 4, 4, 4, 4, 4, 4, 4, 4, 4, 4, 4, 4, 4, 4, 4, 4, 4, 4, 4, 4, 4, 4, 4, 4, 4, 4, 4, 4, 4, 4, 4, 4, 4, 4, 4, 4, 4, 4, 4, 4, 4, 4, 4, 4, 4, 4, 4, 4, 4, 4, 4, 4, 4, 4, 4, 4, 4, 4, 4, 4, 4, 4, 4, 4, 4, 4, 4, 4, 4, 4, 4, 4, 4, 4, 4, 4, 4, 4, 4, 4, 4, 4, 4, 4, 4, 4, 4, 4, 4, 4, 4, 4, 4, 4, 4, 4, 4, 4, 4, 4, 4, 4, 4, 4, 4, 4, 4, 4, 4, 4, 4, 4, 4, 4, 4, 4, 4, 4, 4, 4, 4, 4, 4, 4, 4, 4, 4, 4, 4, 4, 4, 4, 4, 4, 4, 4, 4, 4, 4, 4, 4, 4, 4, 4, 4, 4, 4, 4]
        int[] faceVertexIndices = [0, 64, 65, 1, 128, 129, 193, 192, 0, 1, 129, 128, 64, 192, 193, 65, 1, 65, 66, 2, 129, 130, 194, 193, 1, 2, 130, 129, 65, 193, 194, 66, 2, 66, 67, 3, 130, 131, 195, 194, 2, 3, 131, 130, 66, 194, 195, 67, 3, 67, 68, 4, 131, 132, 196, 195, 3, 4, 132, 131, 67, 195, 196, 68, 4, 68, 69, 5, 132, 133, 197, 196, 4, 5, 133, 132, 68, 196, 197, 69, 5, 69, 70, 6, 133, 134, 198, 197, 5, 6, 134, 133, 69, 197, 198, 70, 6, 70, 71, 7, 134, 135, 199, 198, 6, 7, 135, 134, 70, 198, 199, 71, 7, 71, 72, 8, 135, 136, 200, 199, 7, 8, 136, 135, 71, 199, 200, 72, 8, 72, 73, 9, 136, 137, 201, 200, 8, 9, 137, 136, 72, 200, 201, 73, 9, 73, 74, 10, 137, 138, 202, 201, 9, 10, 138, 137, 73, 201, 202, 74, 10, 74, 75, 11, 138, 139, 203, 202, 10, 11, 139, 138, 74, 202, 203, 75, 11, 75, 76, 12, 139, 140, 204, 203, 11, 12, 140, 139, 75, 203, 204, 76, 12, 76, 77, 13, 140, 141, 205, 204, 12, 13, 141, 140, 76, 204, 205, 77, 13, 77, 78, 14, 141, 142, 206, 205, 13, 14, 142, 141, 77, 205, 206, 78, 14, 78, 79, 15, 142, 143, 207, 206, 14, 15, 143, 142, 78, 206, 207, 79, 15, 79, 80, 16, 143, 144, 208, 207, 15, 16, 144, 143, 79, 207, 208, 80, 16, 80, 81, 17, 144, 145, 209, 208, 16, 17, 145, 144, 80, 208, 209, 81, 17, 81, 82, 18, 145, 146, 210, 209, 17, 18, 146, 145, 81, 209, 210, 82, 18, 82, 83, 19, 146, 147, 211, 210, 18, 19, 147, 146, 82, 210, 211, 83, 19, 83, 84, 20, 147, 148, 212, 211, 19, 20, 148, 147, 83, 211, 212, 84, 20, 84, 85, 21, 148, 149, 213, 212, 20, 21, 149, 148, 84, 212, 213, 85, 21, 85, 86, 22, 149, 150, 214, 213, 21, 22, 150, 149, 85, 213, 214, 86, 22, 86, 87, 23, 150, 151, 215, 214, 22, 23, 151, 150, 86, 214, 215, 87, 23, 87, 88, 24, 151, 152, 216, 215, 23, 24, 152, 151, 87, 215, 216, 88, 24, 88, 89, 25, 152, 153, 217, 216, 24, 25, 153, 152, 88, 216, 217, 89, 25, 89, 90, 26, 153, 154, 218, 217, 25, 26, 154, 153, 89, 217, 218, 90, 26, 90, 91, 27, 154, 155, 219, 218, 26, 27, 155, 154, 90, 218, 219, 91, 27, 91, 92, 28, 155, 156, 220, 219, 27, 28, 156, 155, 91, 219, 220, 92, 28, 92, 93, 29, 156, 157, 221, 220, 28, 29, 157, 156, 92, 220, 221, 93, 29, 93, 94, 30, 157, 158, 222, 221, 29, 30, 158, 157, 93, 221, 222, 94, 30, 94, 95, 31, 158, 159, 223, 222, 30, 31, 159, 158, 94, 222, 223, 95, 31, 95, 96, 32, 159, 160, 224, 223, 31, 32, 160, 159, 95, 223, 224, 96, 32, 96, 97, 33, 160, 161, 225, 224, 32, 33, 161, 160, 96, 224, 225, 97, 33, 97, 98, 34, 161, 162, 226, 225, 33, 34, 162, 161, 97, 225, 226, 98, 34, 98, 99, 35, 162, 163, 227, 226, 34, 35, 163, 162, 98, 226, 227, 99, 35, 99, 100, 36, 163, 164, 228, 227, 35, 36, 164, 163, 99, 227, 228, 100, 36, 100, 101, 37, 164, 165, 229, 228, 36, 37, 165, 164, 100, 228, 229, 101, 37, 101, 102, 38, 165, 166, 230, 229, 37, 38, 166, 165, 101, 229, 230, 102, 38, 102, 103, 39, 166, 167, 231, 230, 38, 39, 167, 166, 102, 230, 231, 103, 39, 103, 104, 40, 167, 168, 232, 231, 39, 40, 168, 167, 103, 231, 232, 104, 40, 104, 105, 41, 168, 169, 233, 232, 40, 41, 169, 168, 104, 232, 233, 105, 41, 105, 106, 42, 169, 170, 234, 233, 41, 42, 170, 169, 105, 233, 234, 106, 42, 106, 107, 43, 170, 171, 235, 234, 42, 43, 171, 170, 106, 234, 235, 107, 43, 107, 108, 44, 171, 172, 236, 235, 43, 44, 172, 171, 107, 235, 236, 108, 44, 108, 109, 45, 172, 173, 237, 236, 44, 45, 173, 172, 108, 236, 237, 109, 45, 109, 110, 46, 173, 174, 238, 237, 45, 46, 174, 173, 109, 237, 238, 110, 46, 110, 111, 47, 174, 175, 239, 238, 46, 47, 175, 174, 110, 238, 239, 111, 47, 111, 112, 48, 175, 176, 240, 239, 47, 48, 176, 175, 111, 239, 240, 112, 48, 112, 113, 49, 176, 177, 241, 240, 48, 49, 177, 176, 112, 240, 241, 113, 49, 113, 114, 50, 177, 178, 242, 241, 49, 50, 178, 177, 113, 241, 242, 114, 50, 114, 115, 51, 178, 179, 243, 242, 50, 51, 179, 178, 114, 242, 243, 115, 51, 115, 116, 52, 179, 180, 244, 243, 51, 52, 180, 179, 115, 243, 244, 116, 52, 116, 117, 53, 180, 181, 245, 244, 52, 53, 181, 180, 116, 244, 245, 117, 53, 117, 118, 54, 181, 182, 246, 245, 53, 54, 182, 181, 117, 245, 246, 118, 54, 118, 119, 55, 182, 183, 247, 246, 54, 55, 183, 182, 118, 246, 247, 119, 55, 119, 120, 56, 183, 184, 248, 247, 55, 56, 184, 183, 119, 247, 248, 120, 56, 120, 121, 57, 184, 185, 249, 248, 56, 57, 185, 184, 120, 248, 249, 121, 57, 121, 122, 58, 185, 186, 250, 249, 57, 58, 186, 185, 121, 249, 250, 122, 58, 122, 123, 59, 186, 187, 251, 250, 58, 59, 187, 186, 122, 250, 251, 123, 59, 123, 124, 60, 187, 188, 252, 251, 59, 60, 188, 187, 123, 251, 252, 124, 60, 124, 125, 61, 188, 189, 253, 252, 60, 61, 189, 188, 124, 252, 253, 125, 61, 125, 126, 62, 189, 190, 254, 253, 61, 62, 190, 189, 125, 253, 254, 126, 62, 126, 127, 63, 190, 191, 255, 254, 62, 63, 191, 190, 126, 254, 255, 127, 63, 127, 64, 0, 191, 128, 192, 255, 63, 0, 128, 191, 127, 255, 192, 64]
        rel material:binding = </Tank/Looks/ConcreteMat>
        point3f[] points = [(12.5, 0, 0), (12.439809, 1.2252142, 0), (12.259816, 2.438629, 0), (11.961754, 3.6285584, 0), (11.548494, 4.783543, 0), (11.024015, 5.8924594, 0), (10.393371, 6.944628, 0), (9.662631, 7.929916, 0), (8.838835, 8.838835, 0), (7.929916, 9.662631, 0), (6.944628, 10.393371, 0), (5.8924594, 11.024015, 0), (4.783543, 11.548494, 0), (3.6285584, 11.961754, 0), (2.438629, 12.259816, 0), (1.2252142, 12.439809, 0), (7.654042e-16, 12.5, 0), (-1.2252142, 12.439809, 0), (-2.438629, 12.259816, 0), (-3.6285584, 11.961754, 0), (-4.783543, 11.548494, 0), (-5.8924594, 11.024015, 0), (-6.944628, 10.393371, 0), (-7.929916, 9.662631, 0), (-8.838835, 8.838835, 0), (-9.662631, 7.929916, 0), (-10.393371, 6.944628, 0), (-11.024015, 5.8924594, 0), (-11.548494, 4.783543, 0), (-11.961754, 3.6285584, 0), (-12.259816, 2.438629, 0), (-12.439809, 1.2252142, 0), (-12.5, 1.5308084e-15, 0), (-12.439809, -1.2252142, 0), (-12.259816, -2.438629, 0), (-11.961754, -3.6285584, 0), (-11.548494, -4.783543, 0), (-11.024015, -5.8924594, 0), (-10.393371, -6.944628, 0), (-9.662631, -7.929916, 0), (-8.838835, -8.838835, 0), (-7.929916, -9.662631, 0), (-6.944628, -10.393371, 0), (-5.8924594, -11.024015, 0), (-4.783543, -11.548494, 0), (-3.6285584, -11.961754, 0), (-2.438629, -12.259816, 0), (-1.2252142, -12.439809, 0), (-2.2962127e-15, -12.5, 0), (1.2252142, -12.439809, 0), (2.438629, -12.259816, 0), (3.6285584, -11.961754, 0), (4.783543, -11.548494, 0), (5.8924594, -11.024015, 0), (6.944628, -10.393371, 0), (7.929916, -9.662631, 0), (8.838835, -8.838835, 0), (9.662631, -7.929916, 0), (10.393371, -6.944628, 0), (11.024015, -5.8924594, 0), (11.548494, -4.783543, 0), (11.961754, -3.6285584, 0), (12.259816, -2.438629, 0), (12.439809, -1.2252142, 0), (12.5, 0, 2), (12.439809, 1.2252142, 2), (12.259816, 2.438629, 2), (11.961754, 3.6285584, 2), (11.548494, 4.783543, 2), (11.024015, 5.8924594, 2), (10.393371, 6.944628, 2), (9.662631, 7.929916, 2), (8.838835, 8.838835, 2), (7.929916, 9.662631, 2), (6.944628, 10.393371, 2), (5.8924594, 11.024015, 2), (4.783543, 11.548494, 2), (3.6285584, 11.961754, 2), (2.438629, 12.259816, 2), (1.2252142, 12.439809, 2), (7.654042e-16, 12.5, 2), (-1.2252142, 12.439809, 2), (-2.438629, 12.259816, 2), (-3.6285584, 11.961754, 2), (-4.783543, 11.548494, 2), (-5.8924594, 11.024015, 2), (-6.944628, 10.393371, 2), (-7.929916, 9.662631, 2), (-8.838835, 8.838835, 2), (-9.662631, 7.929916, 2), (-10.393371, 6.944628, 2), (-11.024015, 5.8924594, 2), (-11.548494, 4.783543, 2), (-11.961754, 3.6285584, 2), (-12.259816, 2.438629, 2), (-12.439809, 1.2252142, 2), (-12.5, 1.5308084e-15, 2), (-12.439809, -1.2252142, 2), (-12.259816, -2.438629, 2), (-11.961754, -3.6285584, 2), (-11.548494, -4.783543, 2), (-11.024015, -5.8924594, 2), (-10.393371, -6.944628, 2), (-9.662631, -7.929916, 2), (-8.838835, -8.838835, 2), (-7.929916, -9.662631, 2), (-6.944628, -10.393371, 2), (-5.8924594, -11.024015, 2), (-4.783543, -11.548494, 2), (-3.6285584, -11.961754, 2), (-2.438629, -12.259816, 2), (-1.2252142, -12.439809, 2), (-2.2962127e-15, -12.5, 2), (1.2252142, -12.439809, 2), (2.438629, -12.259816, 2), (3.6285584, -11.961754, 2), (4.783543, -11.548494, 2), (5.8924594, -11.024015, 2), (6.944628, -10.393371, 2), (7.929916, -9.662631, 2), (8.838835, -8.838835, 2), (9.662631, -7.929916, 2), (10.393371, -6.944628, 2), (11.024015, -5.8924594, 2), (11.548494, -4.783543, 2), (11.961754, -3.6285584, 2), (12.259816, -2.438629, 2), (12.439809, -1.2252142, 2), (12.3, 0, 0), (12.240772, 1.2056109, 0), (12.063659, 2.399611, 0), (11.770366, 3.5705016, 0), (11.363718, 4.7070065, 0), (10.847631, 5.7981796, 0), (10.227077, 6.8335137, 0), (9.508029, 7.803037, 0), (8.697413, 8.697413, 0), (7.803037, 9.508029, 0), (6.8335137, 10.227077, 0), (5.7981796, 10.847631, 0), (4.7070065, 11.363718, 0), (3.5705016, 11.770366, 0), (2.399611, 12.063659, 0), (1.2056109, 12.240772, 0), (7.5315777e-16, 12.3, 0), (-1.2056109, 12.240772, 0), (-2.399611, 12.063659, 0), (-3.5705016, 11.770366, 0), (-4.7070065, 11.363718, 0), (-5.7981796, 10.847631, 0), (-6.8335137, 10.227077, 0), (-7.803037, 9.508029, 0), (-8.697413, 8.697413, 0), (-9.508029, 7.803037, 0), (-10.227077, 6.8335137, 0), (-10.847631, 5.7981796, 0), (-11.363718, 4.7070065, 0), (-11.770366, 3.5705016, 0), (-12.063659, 2.399611, 0), (-12.240772, 1.2056109, 0), (-12.3, 1.5063155e-15, 0), (-12.240772, -1.2056109, 0), (-12.063659, -2.399611, 0), (-11.770366, -3.5705016, 0), (-11.363718, -4.7070065, 0), (-10.847631, -5.7981796, 0), (-10.227077, -6.8335137, 0), (-9.508029, -7.803037, 0), (-8.697413, -8.697413, 0), (-7.803037, -9.508029, 0), (-6.8335137, -10.227077, 0), (-5.7981796, -10.847631, 0), (-4.7070065, -11.363718, 0), (-3.5705016, -11.770366, 0), (-2.399611, -12.063659, 0), (-1.2056109, -12.240772, 0), (-2.2594733e-15, -12.3, 0), (1.2056109, -12.240772, 0), (2.399611, -12.063659, 0), (3.5705016, -11.770366, 0), (4.7070065, -11.363718, 0), (5.7981796, -10.847631, 0), (6.8335137, -10.227077, 0), (7.803037, -9.508029, 0), (8.697413, -8.697413, 0), (9.508029, -7.803037, 0), (10.227077, -6.8335137, 0), (10.847631, -5.7981796, 0), (11.363718, -4.7070065, 0), (11.770366, -3.5705016, 0), (12.063659, -2.399611, 0), (12.240772, -1.2056109, 0), (12.3, 0, 2), (12.240772, 1.2056109, 2), (12.063659, 2.399611, 2), (11.770366, 3.5705016, 2), (11.363718, 4.7070065, 2), (10.847631, 5.7981796, 2), (10.227077, 6.8335137, 2), (9.508029, 7.803037, 2), (8.697413, 8.697413, 2), (7.803037, 9.508029, 2), (6.8335137, 10.227077, 2), (5.7981796, 10.847631, 2), (4.7070065, 11.363718, 2), (3.5705016, 11.770366, 2), (2.399611, 12.063659, 2), (1.2056109, 12.240772, 2), (7.5315777e-16, 12.3, 2), (-1.2056109, 12.240772, 2), (-2.399611, 12.063659, 2), (-3.5705016, 11.770366, 2), (-4.7070065, 11.363718, 2), (-5.7981796, 10.847631, 2), (-6.8335137, 10.227077, 2), (-7.803037, 9.508029, 2), (-8.697413, 8.697413, 2), (-9.508029, 7.803037, 2), (-10.227077, 6.8335137, 2), (-10.847631, 5.7981796, 2), (-11.363718, 4.7070065, 2), (-11.770366, 3.5705016, 2), (-12.063659, 2.399611, 2), (-12.240772, 1.2056109, 2), (-12.3, 1.5063155e-15, 2), (-12.240772, -1.2056109, 2), (-12.063659, -2.399611, 2), (-11.770366, -3.5705016, 2), (-11.363718, -4.7070065, 2), (-10.847631, -5.7981796, 2), (-10.227077, -6.8335137, 2), (-9.508029, -7.803037, 2), (-8.697413, -8.697413, 2), (-7.803037, -9.508029, 2), (-6.8335137, -10.227077, 2), (-5.7981796, -10.847631, 2), (-4.7070065, -11.363718, 2), (-3.5705016, -11.770366, 2), (-2.399611, -12.063659, 2), (-1.2056109, -12.240772, 2), (-2.2594733e-15, -12.3, 2), (1.2056109, -12.240772, 2), (2.399611, -12.063659, 2), (3.5705016, -11.770366, 2), (4.7070065, -11.363718, 2), (5.7981796, -10.847631, 2), (6.8335137, -10.227077, 2), (7.803037, -9.508029, 2), (8.697413, -8.697413, 2), (9.508029, -7.803037, 2), (10.227077, -6.8335137, 2), (10.847631, -5.7981796, 2), (11.363718, -4.7070065, 2), (11.770366, -3.5705016, 2), (12.063659, -2.399611, 2), (12.240772, -1.2056109, 2)]
        uniform token subdivisionScheme = "none"
    }

    def Mesh "RaisableFloor" (
        assetInfo = {
            asset identifier = @flowave_raisable_floor@
            string version = "0.1.0-flowave-placeholder"
        }
        kind = "component"
    )
    {
        int[] faceVertexCounts = [4, 3, 3, 4, 3, 3, 4, 3, 3, 4, 3, 3, 4, 3, 3, 4, 3, 3, 4, 3, 3, 4, 3, 3, 4, 3, 3, 4, 3, 3, 4, 3, 3, 4, 3, 3, 4, 3, 3, 4, 3, 3, 4, 3, 3, 4, 3, 3, 4, 3, 3, 4, 3, 3, 4, 3, 3, 4, 3, 3, 4, 3, 3, 4, 3, 3, 4, 3, 3, 4, 3, 3, 4, 3, 3, 4, 3, 3, 4, 3, 3, 4, 3, 3, 4, 3, 3, 4, 3, 3, 4, 3, 3, 4, 3, 3, 4, 3, 3, 4, 3, 3, 4, 3, 3, 4, 3, 3, 4, 3, 3, 4, 3, 3, 4, 3, 3, 4, 3, 3, 4, 3, 3, 4, 3, 3, 4, 3, 3, 4, 3, 3, 4, 3, 3, 4, 3, 3, 4, 3, 3, 4, 3, 3, 4, 3, 3, 4, 3, 3, 4, 3, 3, 4, 3, 3, 4, 3, 3, 4, 3, 3, 4, 3, 3, 4, 3, 3, 4, 3, 3, 4, 3, 3, 4, 3, 3, 4, 3, 3, 4, 3, 3, 4, 3, 3, 4, 3, 3, 4, 3, 3]
        int[] faceVertexIndices = [0, 1, 65, 64, 128, 1, 0, 129, 64, 65, 1, 2, 66, 65, 128, 2, 1, 129, 65, 66, 2, 3, 67, 66, 128, 3, 2, 129, 66, 67, 3, 4, 68, 67, 128, 4, 3, 129, 67, 68, 4, 5, 69, 68, 128, 5, 4, 129, 68, 69, 5, 6, 70, 69, 128, 6, 5, 129, 69, 70, 6, 7, 71, 70, 128, 7, 6, 129, 70, 71, 7, 8, 72, 71, 128, 8, 7, 129, 71, 72, 8, 9, 73, 72, 128, 9, 8, 129, 72, 73, 9, 10, 74, 73, 128, 10, 9, 129, 73, 74, 10, 11, 75, 74, 128, 11, 10, 129, 74, 75, 11, 12, 76, 75, 128, 12, 11, 129, 75, 76, 12, 13, 77, 76, 128, 13, 12, 129, 76, 77, 13, 14, 78, 77, 128, 14, 13, 129, 77, 78, 14, 15, 79, 78, 128, 15, 14, 129, 78, 79, 15, 16, 80, 79, 128, 16, 15, 129, 79, 80, 16, 17, 81, 80, 128, 17, 16, 129, 80, 81, 17, 18, 82, 81, 128, 18, 17, 129, 81, 82, 18, 19, 83, 82, 128, 19, 18, 129, 82, 83, 19, 20, 84, 83, 128, 20, 19, 129, 83, 84, 20, 21, 85, 84, 128, 21, 20, 129, 84, 85, 21, 22, 86, 85, 128, 22, 21, 129, 85, 86, 22, 23, 87, 86, 128, 23, 22, 129, 86, 87, 23, 24, 88, 87, 128, 24, 23, 129, 87, 88, 24, 25, 89, 88, 128, 25, 24, 129, 88, 89, 25, 26, 90, 89, 128, 26, 25, 129, 89, 90, 26, 27, 91, 90, 128, 27, 26, 129, 90, 91, 27, 28, 92, 91, 128, 28, 27, 129, 91, 92, 28, 29, 93, 92, 128, 29, 28, 129, 92, 93, 29, 30, 94, 93, 128, 30, 29, 129, 93, 94, 30, 31, 95, 94, 128, 31, 30, 129, 94, 95, 31, 32, 96, 95, 128, 32, 31, 129, 95, 96, 32, 33, 97, 96, 128, 33, 32, 129, 96, 97, 33, 34, 98, 97, 128, 34, 33, 129, 97, 98, 34, 35, 99, 98, 128, 35, 34, 129, 98, 99, 35, 36, 100, 99, 128, 36, 35, 129, 99, 100, 36, 37, 101, 100, 128, 37, 36, 129, 100, 101, 37, 38, 102, 101, 128, 38, 37, 129, 101, 102, 38, 39, 103, 102, 128, 39, 38, 129, 102, 103, 39, 40, 104, 103, 128, 40, 39, 129, 103, 104, 40, 41, 105, 104, 128, 41, 40, 129, 104, 105, 41, 42, 106, 105, 128, 42, 41, 129, 105, 106, 42, 43, 107, 106, 128, 43, 42, 129, 106, 107, 43, 44, 108, 107, 128, 44, 43, 129, 107, 108, 44, 45, 109, 108, 128, 45, 44, 129, 108, 109, 45, 46, 110, 109, 128, 46, 45, 129, 109, 110, 46, 47, 111, 110, 128, 47, 46, 129, 110, 111, 47, 48, 112, 111, 128, 48, 47, 129, 111, 112, 48, 49, 113, 112, 128, 49, 48, 129, 112, 113, 49, 50, 114, 113, 128, 50, 49, 129, 113, 114, 50, 51, 115, 114, 128, 51, 50, 129, 114, 115, 51, 52, 116, 115, 128, 52, 51, 129, 115, 116, 52, 53, 117, 116, 128, 53, 52, 129, 116, 117, 53, 54, 118, 117, 128, 54, 53, 129, 117, 118, 54, 55, 119, 118, 128, 55, 54, 129, 118, 119, 55, 56, 120, 119, 128, 56, 55, 129, 119, 120, 56, 57, 121, 120, 128, 57, 56, 129, 120, 121, 57, 58, 122, 121, 128, 58, 57, 129, 121, 122, 58, 59, 123, 122, 128, 59, 58, 129, 122, 123, 59, 60, 124, 123, 128, 60, 59, 129, 123, 124, 60, 61, 125, 124, 128, 61, 60, 129, 124, 125, 61, 62, 126, 125, 128, 62, 61, 129, 125, 126, 62, 63, 127, 126, 128, 63, 62, 129, 126, 127, 63, 0, 64, 127, 128, 0, 63, 129, 127, 64]
        rel material:binding = </Tank/Looks/FloorSteelMat>
        point3f[] points = [(7.5, 0, 0), (7.4638853, 0.7351286, 0), (7.35589, 1.4631774, 0), (7.1770525, 2.177135, 0), (6.9290967, 2.8701258, 0), (6.6144094, 3.5354755, 0), (6.236022, 4.1667767, 0), (5.7975783, 4.75795, 0), (5.303301, 5.303301, 0), (4.75795, 5.7975783, 0), (4.1667767, 6.236022, 0), (3.5354755, 6.6144094, 0), (2.8701258, 6.9290967, 0), (2.177135, 7.1770525, 0), (1.4631774, 7.35589, 0), (0.7351286, 7.4638853, 0), (4.592425e-16, 7.5, 0), (-0.7351286, 7.4638853, 0), (-1.4631774, 7.35589, 0), (-2.177135, 7.1770525, 0), (-2.8701258, 6.9290967, 0), (-3.5354755, 6.6144094, 0), (-4.1667767, 6.236022, 0), (-4.75795, 5.7975783, 0), (-5.303301, 5.303301, 0), (-5.7975783, 4.75795, 0), (-6.236022, 4.1667767, 0), (-6.6144094, 3.5354755, 0), (-6.9290967, 2.8701258, 0), (-7.1770525, 2.177135, 0), (-7.35589, 1.4631774, 0), (-7.4638853, 0.7351286, 0), (-7.5, 9.18485e-16, 0), (-7.4638853, -0.7351286, 0), (-7.35589, -1.4631774, 0), (-7.1770525, -2.177135, 0), (-6.9290967, -2.8701258, 0), (-6.6144094, -3.5354755, 0), (-6.236022, -4.1667767, 0), (-5.7975783, -4.75795, 0), (-5.303301, -5.303301, 0), (-4.75795, -5.7975783, 0), (-4.1667767, -6.236022, 0), (-3.5354755, -6.6144094, 0), (-2.8701258, -6.9290967, 0), (-2.177135, -7.1770525, 0), (-1.4631774, -7.35589, 0), (-0.7351286, -7.4638853, 0), (-1.3777277e-15, -7.5, 0), (0.7351286, -7.4638853, 0), (1.4631774, -7.35589, 0), (2.177135, -7.1770525, 0), (2.8701258, -6.9290967, 0), (3.5354755, -6.6144094, 0), (4.1667767, -6.236022, 0), (4.75795, -5.7975783, 0), (5.303301, -5.303301, 0), (5.7975783, -4.75795, 0), (6.236022, -4.1667767, 0), (6.6144094, -3.5354755, 0), (6.9290967, -2.8701258, 0), (7.1770525, -2.177135, 0), (7.35589, -1.4631774, 0), (7.4638853, -0.7351286, 0), (7.5, 0, 0.1), (7.4638853, 0.7351286, 0.1), (7.35589, 1.4631774, 0.1), (7.1770525, 2.177135, 0.1), (6.9290967, 2.8701258, 0.1), (6.6144094, 3.5354755, 0.1), (6.236022, 4.1667767, 0.1), (5.7975783, 4.75795, 0.1), (5.303301, 5.303301, 0.1), (4.75795, 5.7975783, 0.1), (4.1667767, 6.236022, 0.1), (3.5354755, 6.6144094, 0.1), (2.8701258, 6.9290967, 0.1), (2.177135, 7.1770525, 0.1), (1.4631774, 7.35589, 0.1), (0.7351286, 7.4638853, 0.1), (4.592425e-16, 7.5, 0.1), (-0.7351286, 7.4638853, 0.1), (-1.4631774, 7.35589, 0.1), (-2.177135, 7.1770525, 0.1), (-2.8701258, 6.9290967, 0.1), (-3.5354755, 6.6144094, 0.1), (-4.1667767, 6.236022, 0.1), (-4.75795, 5.7975783, 0.1), (-5.303301, 5.303301, 0.1), (-5.7975783, 4.75795, 0.1), (-6.236022, 4.1667767, 0.1), (-6.6144094, 3.5354755, 0.1), (-6.9290967, 2.8701258, 0.1), (-7.1770525, 2.177135, 0.1), (-7.35589, 1.4631774, 0.1), (-7.4638853, 0.7351286, 0.1), (-7.5, 9.18485e-16, 0.1), (-7.4638853, -0.7351286, 0.1), (-7.35589, -1.4631774, 0.1), (-7.1770525, -2.177135, 0.1), (-6.9290967, -2.8701258, 0.1), (-6.6144094, -3.5354755, 0.1), (-6.236022, -4.1667767, 0.1), (-5.7975783, -4.75795, 0.1), (-5.303301, -5.303301, 0.1), (-4.75795, -5.7975783, 0.1), (-4.1667767, -6.236022, 0.1), (-3.5354755, -6.6144094, 0.1), (-2.8701258, -6.9290967, 0.1), (-2.177135, -7.1770525, 0.1), (-1.4631774, -7.35589, 0.1), (-0.7351286, -7.4638853, 0.1), (-1.3777277e-15, -7.5, 0.1), (0.7351286, -7.4638853, 0.1), (1.4631774, -7.35589, 0.1), (2.177135, -7.1770525, 0.1), (2.8701258, -6.9290967, 0.1), (3.5354755, -6.6144094, 0.1), (4.1667767, -6.236022, 0.1), (4.75795, -5.7975783, 0.1), (5.303301, -5.303301, 0.1), (5.7975783, -4.75795, 0.1), (6.236022, -4.1667767, 0.1), (6.6144094, -3.5354755, 0.1), (6.9290967, -2.8701258, 0.1), (7.1770525, -2.177135, 0.1), (7.35589, -1.4631774, 0.1), (7.4638853, -0.7351286, 0.1), (0, 0, 0), (0, 0, 0.1)]
        uniform token subdivisionScheme = "none"
    }

    def Mesh "BasinFloor" (
        assetInfo = {
            asset identifier = @flowave_basin_floor@
            string version = "0.1.0-flowave-placeholder"
        }
        kind = "component"
    )
    {
        int[] faceVertexCounts = [4, 4, 4, 4, 4, 4, 4, 4, 4, 4, 4, 4, 4, 4, 4, 4, 4, 4, 4, 4, 4, 4, 4, 4, 4, 4, 4, 4, 4, 4, 4, 4, 4, 4, 4, 4, 4, 4, 4, 4, 4, 4, 4, 4, 4, 4, 4, 4, 4, 4, 4, 4, 4, 4, 4, 4, 4, 4, 4, 4, 4, 4, 4, 4]
        int[] faceVertexIndices = [0, 64, 65, 1, 1, 65, 66, 2, 2, 66, 67, 3, 3, 67, 68, 4, 4, 68, 69, 5, 5, 69, 70, 6, 6, 70, 71, 7, 7, 71, 72, 8, 8, 72, 73, 9, 9, 73, 74, 10, 10, 74, 75, 11, 11, 75, 76, 12, 12, 76, 77, 13, 13, 77, 78, 14, 14, 78, 79, 15, 15, 79, 80, 16, 16, 80, 81, 17, 17, 81, 82, 18, 18, 82, 83, 19, 19, 83, 84, 20, 20, 84, 85, 21, 21, 85, 86, 22, 22, 86, 87, 23, 23, 87, 88, 24, 24, 88, 89, 25, 25, 89, 90, 26, 26, 90, 91, 27, 27, 91, 92, 28, 28, 92, 93, 29, 29, 93, 94, 30, 30, 94, 95, 31, 31, 95, 96, 32, 32, 96, 97, 33, 33, 97, 98, 34, 34, 98, 99, 35, 35, 99, 100, 36, 36, 100, 101, 37, 37, 101, 102, 38, 38, 102, 103, 39, 39, 103, 104, 40, 40, 104, 105, 41, 41, 105, 106, 42, 42, 106, 107, 43, 43, 107, 108, 44, 44, 108, 109, 45, 45, 109, 110, 46, 46, 110, 111, 47, 47, 111, 112, 48, 48, 112, 113, 49, 49, 113, 114, 50, 50, 114, 115, 51, 51, 115, 116, 52, 52, 116, 117, 53, 53, 117, 118, 54, 54, 118, 119, 55, 55, 119, 120, 56, 56, 120, 121, 57, 57, 121, 122, 58, 58, 122, 123, 59, 59, 123, 124, 60, 60, 124, 125, 61, 61, 125, 126, 62, 62, 126, 127, 63, 63, 127, 64, 0]
        rel material:binding = </Tank/Looks/DarkConcreteMat>
        point3f[] points = [(12.5, 0, 0), (12.439809, 1.2252142, 0), (12.259816, 2.438629, 0), (11.961754, 3.6285584, 0), (11.548494, 4.783543, 0), (11.024015, 5.8924594, 0), (10.393371, 6.944628, 0), (9.662631, 7.929916, 0), (8.838835, 8.838835, 0), (7.929916, 9.662631, 0), (6.944628, 10.393371, 0), (5.8924594, 11.024015, 0), (4.783543, 11.548494, 0), (3.6285584, 11.961754, 0), (2.438629, 12.259816, 0), (1.2252142, 12.439809, 0), (7.654042e-16, 12.5, 0), (-1.2252142, 12.439809, 0), (-2.438629, 12.259816, 0), (-3.6285584, 11.961754, 0), (-4.783543, 11.548494, 0), (-5.8924594, 11.024015, 0), (-6.944628, 10.393371, 0), (-7.929916, 9.662631, 0), (-8.838835, 8.838835, 0), (-9.662631, 7.929916, 0), (-10.393371, 6.944628, 0), (-11.024015, 5.8924594, 0), (-11.548494, 4.783543, 0), (-11.961754, 3.6285584, 0), (-12.259816, 2.438629, 0), (-12.439809, 1.2252142, 0), (-12.5, 1.5308084e-15, 0), (-12.439809, -1.2252142, 0), (-12.259816, -2.438629, 0), (-11.961754, -3.6285584, 0), (-11.548494, -4.783543, 0), (-11.024015, -5.8924594, 0), (-10.393371, -6.944628, 0), (-9.662631, -7.929916, 0), (-8.838835, -8.838835, 0), (-7.929916, -9.662631, 0), (-6.944628, -10.393371, 0), (-5.8924594, -11.024015, 0), (-4.783543, -11.548494, 0), (-3.6285584, -11.961754, 0), (-2.438629, -12.259816, 0), (-1.2252142, -12.439809, 0), (-2.2962127e-15, -12.5, 0), (1.2252142, -12.439809, 0), (2.438629, -12.259816, 0), (3.6285584, -11.961754, 0), (4.783543, -11.548494, 0), (5.8924594, -11.024015, 0), (6.944628, -10.393371, 0), (7.929916, -9.662631, 0), (8.838835, -8.838835, 0), (9.662631, -7.929916, 0), (10.393371, -6.944628, 0), (11.024015, -5.8924594, 0), (11.548494, -4.783543, 0), (11.961754, -3.6285584, 0), (12.259816, -2.438629, 0), (12.439809, -1.2252142, 0), (7.5, 0, 0), (7.4638853, 0.7351286, 0), (7.35589, 1.4631774, 0), (7.1770525, 2.177135, 0), (6.9290967, 2.8701258, 0), (6.6144094, 3.5354755, 0), (6.236022, 4.1667767, 0), (5.7975783, 4.75795, 0), (5.303301, 5.303301, 0), (4.75795, 5.7975783, 0), (4.1667767, 6.236022, 0), (3.5354755, 6.6144094, 0), (2.8701258, 6.9290967, 0), (2.177135, 7.1770525, 0), (1.4631774, 7.35589, 0), (0.7351286, 7.4638853, 0), (4.592425e-16, 7.5, 0), (-0.7351286, 7.4638853, 0), (-1.4631774, 7.35589, 0), (-2.177135, 7.1770525, 0), (-2.8701258, 6.9290967, 0), (-3.5354755, 6.6144094, 0), (-4.1667767, 6.236022, 0), (-4.75795, 5.7975783, 0), (-5.303301, 5.303301, 0), (-5.7975783, 4.75795, 0), (-6.236022, 4.1667767, 0), (-6.6144094, 3.5354755, 0), (-6.9290967, 2.8701258, 0), (-7.1770525, 2.177135, 0), (-7.35589, 1.4631774, 0), (-7.4638853, 0.7351286, 0), (-7.5, 9.18485e-16, 0), (-7.4638853, -0.7351286, 0), (-7.35589, -1.4631774, 0), (-7.1770525, -2.177135, 0), (-6.9290967, -2.8701258, 0), (-6.6144094, -3.5354755, 0), (-6.236022, -4.1667767, 0), (-5.7975783, -4.75795, 0), (-5.303301, -5.303301, 0), (-4.75795, -5.7975783, 0), (-4.1667767, -6.236022, 0), (-3.5354755, -6.6144094, 0), (-2.8701258, -6.9290967, 0), (-2.177135, -7.1770525, 0), (-1.4631774, -7.35589, 0), (-0.7351286, -7.4638853, 0), (-1.3777277e-15, -7.5, 0), (0.7351286, -7.4638853, 0), (1.4631774, -7.35589, 0), (2.177135, -7.1770525, 0), (2.8701258, -6.9290967, 0), (3.5354755, -6.6144094, 0), (4.1667767, -6.236022, 0), (4.75795, -5.7975783, 0), (5.303301, -5.303301, 0), (5.7975783, -4.75795, 0), (6.236022, -4.1667767, 0), (6.6144094, -3.5354755, 0), (6.9290967, -2.8701258, 0), (7.1770525, -2.177135, 0), (7.35589, -1.4631774, 0), (7.4638853, -0.7351286, 0)]
        uniform token subdivisionScheme = "none"
    }

    def Mesh "Step" (
        assetInfo = {
            asset identifier = @flowave_step@
            string version = "0.1.0-flowave-placeholder"
        }
        kind = "component"
    )
    {
        int[] faceVertexCounts = [4, 4, 4, 4, 4, 4, 4, 4, 4, 4, 4, 4, 4, 4, 4, 4, 4, 4, 4, 4, 4, 4, 4, 4, 4, 4, 4, 4, 4, 4, 4, 4, 4, 4, 4, 4, 4, 4, 4, 4, 4, 4, 4, 4, 4, 4, 4, 4, 4, 4, 4, 4, 4, 4, 4, 4, 4, 4, 4, 4, 4, 4, 4, 4, 4, 4, 4, 4, 4, 4, 4, 4, 4, 4, 4, 4, 4, 4, 4, 4, 4, 4, 4, 4, 4, 4, 4, 4, 4, 4, 4, 4, 4, 4, 4, 4, 4, 4, 4, 4, 4, 4, 4, 4, 4, 4, 4, 4, 4, 4, 4, 4, 4, 4, 4, 4, 4, 4, 4, 4, 4, 4, 4, 4, 4, 4, 4, 4, 4, 4, 4, 4, 4, 4, 4, 4, 4, 4, 4, 4, 4, 4, 4, 4, 4, 4, 4, 4, 4, 4, 4, 4, 4, 4, 4, 4, 4, 4, 4, 4, 4, 4, 4, 4, 4, 4, 4, 4, 4, 4, 4, 4, 4, 4, 4, 4, 4, 4, 4, 4, 4, 4, 4, 4, 4, 4, 4, 4, 4, 4, 4, 4, 4, 4, 4, 4, 4, 4, 4, 4, 4, 4, 4, 4, 4, 4, 4, 4, 4, 4, 4, 4, 4, 4, 4, 4, 4, 4, 4, 4, 4, 4, 4, 4, 4, 4, 4, 4, 4, 4, 4, 4, 4, 4, 4, 4, 4, 4, 4, 4, 4, 4, 4, 4, 4, 4, 4, 4, 4, 4, 4, 4, 4, 4, 4, 4]
        int[] faceVertexIndices = [0, 64, 65, 1, 128, 129, 193, 192, 0, 1, 129, 128, 64, 192, 193, 65, 1, 65, 66, 2, 129, 130, 194, 193, 1, 2, 130, 129, 65, 193, 194, 66, 2, 66, 67, 3, 130, 131, 195, 194, 2, 3, 131, 130, 66, 194, 195, 67, 3, 67, 68, 4, 131, 132, 196, 195, 3, 4, 132, 131, 67, 195, 196, 68, 4, 68, 69, 5, 132, 133, 197, 196, 4, 5, 133, 132, 68, 196, 197, 69, 5, 69, 70, 6, 133, 134, 198, 197, 5, 6, 134, 133, 69, 197, 198, 70, 6, 70, 71, 7, 134, 135, 199, 198, 6, 7, 135, 134, 70, 198, 199, 71, 7, 71, 72, 8, 135, 136, 200, 199, 7, 8, 136, 135, 71, 199, 200, 72, 8, 72, 73, 9, 136, 137, 201, 200, 8, 9, 137, 136, 72, 200, 201, 73, 9, 73, 74, 10, 137, 138, 202, 201, 9, 10, 138, 137, 73, 201, 202, 74, 10, 74, 75, 11, 138, 139, 203, 202, 10, 11, 139, 138, 74, 202, 203, 75, 11, 75, 76, 12, 139, 140, 204, 203, 11, 12, 140, 139, 75, 203, 204, 76, 12, 76, 77, 13, 140, 141, 205, 204, 12, 13, 141, 140, 76, 204, 205, 77, 13, 77, 78, 14, 141, 142, 206, 205, 13, 14, 142, 141, 77, 205, 206, 78, 14, 78, 79, 15, 142, 143, 207, 206, 14, 15, 143, 142, 78, 206, 207, 79, 15, 79, 80, 16, 143, 144, 208, 207, 15, 16, 144, 143, 79, 207, 208, 80, 16, 80, 81, 17, 144, 145, 209, 208, 16, 17, 145, 144, 80, 208, 209, 81, 17, 81, 82, 18, 145, 146, 210, 209, 17, 18, 146, 145, 81, 209, 210, 82, 18, 82, 83, 19, 146, 147, 211, 210, 18, 19, 147, 146, 82, 210, 211, 83, 19, 83, 84, 20, 147, 148, 212, 211, 19, 20, 148, 147, 83, 211, 212, 84, 20, 84, 85, 21, 148, 149, 213, 212, 20, 21, 149, 148, 84, 212, 213, 85, 21, 85, 86, 22, 149, 150, 214, 213, 21, 22, 150, 149, 85, 213, 214, 86, 22, 86, 87, 23, 150, 151, 215, 214, 22, 23, 151, 150, 86, 214, 215, 87, 23, 87, 88, 24, 151, 152, 216, 215, 23, 24, 152, 151, 87, 215, 216, 88, 24, 88, 89, 25, 152, 153, 217, 216, 24, 25, 153, 152, 88, 216, 217, 89, 25, 89, 90, 26, 153, 154, 218, 217, 25, 26, 154, 153, 89, 217, 218, 90, 26, 90, 91, 27, 154, 155, 219, 218, 26, 27, 155, 154, 90, 218, 219, 91, 27, 91, 92, 28, 155, 156, 220, 219, 27, 28, 156, 155, 91, 219, 220, 92, 28, 92, 93, 29, 156, 157, 221, 220, 28, 29, 157, 156, 92, 220, 221, 93, 29, 93, 94, 30, 157, 158, 222, 221, 29, 30, 158, 157, 93, 221, 222, 94, 30, 94, 95, 31, 158, 159, 223, 222, 30, 31, 159, 158, 94, 222, 223, 95, 31, 95, 96, 32, 159, 160, 224, 223, 31, 32, 160, 159, 95, 223, 224, 96, 32, 96, 97, 33, 160, 161, 225, 224, 32, 33, 161, 160, 96, 224, 225, 97, 33, 97, 98, 34, 161, 162, 226, 225, 33, 34, 162, 161, 97, 225, 226, 98, 34, 98, 99, 35, 162, 163, 227, 226, 34, 35, 163, 162, 98, 226, 227, 99, 35, 99, 100, 36, 163, 164, 228, 227, 35, 36, 164, 163, 99, 227, 228, 100, 36, 100, 101, 37, 164, 165, 229, 228, 36, 37, 165, 164, 100, 228, 229, 101, 37, 101, 102, 38, 165, 166, 230, 229, 37, 38, 166, 165, 101, 229, 230, 102, 38, 102, 103, 39, 166, 167, 231, 230, 38, 39, 167, 166, 102, 230, 231, 103, 39, 103, 104, 40, 167, 168, 232, 231, 39, 40, 168, 167, 103, 231, 232, 104, 40, 104, 105, 41, 168, 169, 233, 232, 40, 41, 169, 168, 104, 232, 233, 105, 41, 105, 106, 42, 169, 170, 234, 233, 41, 42, 170, 169, 105, 233, 234, 106, 42, 106, 107, 43, 170, 171, 235, 234, 42, 43, 171, 170, 106, 234, 235, 107, 43, 107, 108, 44, 171, 172, 236, 235, 43, 44, 172, 171, 107, 235, 236, 108, 44, 108, 109, 45, 172, 173, 237, 236, 44, 45, 173, 172, 108, 236, 237, 109, 45, 109, 110, 46, 173, 174, 238, 237, 45, 46, 174, 173, 109, 237, 238, 110, 46, 110, 111, 47, 174, 175, 239, 238, 46, 47, 175, 174, 110, 238, 239, 111, 47, 111, 112, 48, 175, 176, 240, 239, 47, 48, 176, 175, 111, 239, 240, 112, 48, 112, 113, 49, 176, 177, 241, 240, 48, 49, 177, 176, 112, 240, 241, 113, 49, 113, 114, 50, 177, 178, 242, 241, 49, 50, 178, 177, 113, 241, 242, 114, 50, 114, 115, 51, 178, 179, 243, 242, 50, 51, 179, 178, 114, 242, 243, 115, 51, 115, 116, 52, 179, 180, 244, 243, 51, 52, 180, 179, 115, 243, 244, 116, 52, 116, 117, 53, 180, 181, 245, 244, 52, 53, 181, 180, 116, 244, 245, 117, 53, 117, 118, 54, 181, 182, 246, 245, 53, 54, 182, 181, 117, 245, 246, 118, 54, 118, 119, 55, 182, 183, 247, 246, 54, 55, 183, 182, 118, 246, 247, 119, 55, 119, 120, 56, 183, 184, 248, 247, 55, 56, 184, 183, 119, 247, 248, 120, 56, 120, 121, 57, 184, 185, 249, 248, 56, 57, 185, 184, 120, 248, 249, 121, 57, 121, 122, 58, 185, 186, 250, 249, 57, 58, 186, 185, 121, 249, 250, 122, 58, 122, 123, 59, 186, 187, 251, 250, 58, 59, 187, 186, 122, 250, 251, 123, 59, 123, 124, 60, 187, 188, 252, 251, 59, 60, 188, 187, 123, 251, 252, 124, 60, 124, 125, 61, 188, 189, 253, 252, 60, 61, 189, 188, 124, 252, 253, 125, 61, 125, 126, 62, 189, 190, 254, 253, 61, 62, 190, 189, 125, 253, 254, 126, 62, 126, 127, 63, 190, 191, 255, 254, 62, 63, 191, 190, 126, 254, 255, 127, 63, 127, 64, 0, 191, 128, 192, 255, 63, 0, 128, 191, 127, 255, 192, 64]
        rel material:binding = </Tank/Looks/ConcreteMat>
        point3f[] points = [(14.8, 0, 1.7), (14.728734, 1.4506537, 1.7), (14.515622, 2.8873367, 1.7), (14.162717, 4.296213, 1.7), (13.673417, 5.663715, 1.7), (13.052435, 6.9766717, 1.7), (12.30575, 8.22244, 1.7), (11.440555, 9.389021, 1.7), (10.46518, 10.46518, 1.7), (9.389021, 11.440555, 1.7), (8.22244, 12.30575, 1.7), (6.9766717, 13.052435, 1.7), (5.663715, 13.673417, 1.7), (4.296213, 14.162717, 1.7), (2.8873367, 14.515622, 1.7), (1.4506537, 14.728734, 1.7), (9.062386e-16, 14.8, 1.7), (-1.4506537, 14.728734, 1.7), (-2.8873367, 14.515622, 1.7), (-4.296213, 14.162717, 1.7), (-5.663715, 13.673417, 1.7), (-6.9766717, 13.052435, 1.7), (-8.22244, 12.30575, 1.7), (-9.389021, 11.440555, 1.7), (-10.46518, 10.46518, 1.7), (-11.440555, 9.389021, 1.7), (-12.30575, 8.22244, 1.7), (-13.052435, 6.9766717, 1.7), (-13.673417, 5.663715, 1.7), (-14.162717, 4.296213, 1.7), (-14.515622, 2.8873367, 1.7), (-14.728734, 1.4506537, 1.7), (-14.8, 1.8124773e-15, 1.7), (-14.728734, -1.4506537, 1.7), (-14.515622, -2.8873367, 1.7), (-14.162717, -4.296213, 1.7), (-13.673417, -5.663715, 1.7), (-13.052435, -6.9766717, 1.7), (-12.30575, -8.22244, 1.7), (-11.440555, -9.389021, 1.7), (-10.46518, -10.46518, 1.7), (-9.389021, -11.440555, 1.7), (-8.22244, -12.30575, 1.7), (-6.9766717, -13.052435, 1.7), (-5.663715, -13.673417, 1.7), (-4.296213, -14.162717, 1.7), (-2.8873367, -14.515622, 1.7), (-1.4506537, -14.728734, 1.7), (-2.718716e-15, -14.8, 1.7), (1.4506537, -14.728734, 1.7), (2.8873367, -14.515622, 1.7), (4.296213, -14.162717, 1.7), (5.663715, -13.673417, 1.7), (6.9766717, -13.052435, 1.7), (8.22244, -12.30575, 1.7), (9.389021, -11.440555, 1.7), (10.46518, -10.46518, 1.7), (11.440555, -9.389021, 1.7), (12.30575, -8.22244, 1.7), (13.052435, -6.9766717, 1.7), (13.673417, -5.663715, 1.7), (14.162717, -4.296213, 1.7), (14.515622, -2.8873367, 1.7), (14.728734, -1.4506537, 1.7), (14.8, 0, 2), (14.728734, 1.4506537, 2), (14.515622, 2.8873367, 2), (14.162717, 4.296213, 2), (13.673417, 5.663715, 2), (13.052435, 6.9766717, 2), (12.30575, 8.22244, 2), (11.440555, 9.389021, 2), (10.46518, 10.46518, 2), (9.389021, 11.440555, 2), (8.22244, 12.30575, 2), (6.9766717, 13.052435, 2), (5.663715, 13.673417, 2), (4.296213, 14.162717, 2), (2.8873367, 14.515622, 2), (1.4506537, 14.728734, 2), (9.062386e-16, 14.8, 2), (-1.4506537, 14.728734, 2), (-2.8873367, 14.515622, 2), (-4.296213, 14.162717, 2), (-5.663715, 13.673417, 2), (-6.9766717, 13.052435, 2), (-8.22244, 12.30575, 2), (-9.389021, 11.440555, 2), (-10.46518, 10.46518, 2), (-11.440555, 9.389021, 2), (-12.30575, 8.22244, 2), (-13.052435, 6.9766717, 2), (-13.673417, 5.663715, 2), (-14.162717, 4.296213, 2), (-14.515622, 2.8873367, 2), (-14.728734, 1.4506537, 2), (-14.8, 1.8124773e-15, 2), (-14.728734, -1.4506537, 2), (-14.515622, -2.8873367, 2), (-14.162717, -4.296213, 2), (-13.673417, -5.663715, 2), (-13.052435, -6.9766717, 2), (-12.30575, -8.22244, 2), (-11.440555, -9.389021, 2), (-10.46518, -10.46518, 2), (-9.389021, -11.440555, 2), (-8.22244, -12.30575, 2), (-6.9766717, -13.052435, 2), (-5.663715, -13.673417, 2), (-4.296213, -14.162717, 2), (-2.8873367, -14.515622, 2), (-1.4506537, -14.728734, 2), (-2.718716e-15, -14.8, 2), (1.4506537, -14.728734, 2), (2.8873367, -14.515622, 2), (4.296213, -14.162717, 2), (5.663715, -13.673417, 2), (6.9766717, -13.052435, 2), (8.22244, -12.30575, 2), (9.389021, -11.440555, 2), (10.46518, -10.46518, 2), (11.440555, -9.389021, 2), (12.30575, -8.22244, 2), (13.052435, -6.9766717, 2), (13.673417, -5.663715, 2), (14.162717, -4.296213, 2), (14.515622, -2.8873367, 2), (14.728734, -1.4506537, 2), (12.5, 0, 1.7), (12.439809, 1.2252142, 1.7), (12.259816, 2.438629, 1.7), (11.961754, 3.6285584, 1.7), (11.548494, 4.783543, 1.7), (11.024015, 5.8924594, 1.7), (10.393371, 6.944628, 1.7), (9.662631, 7.929916, 1.7), (8.838835, 8.838835, 1.7), (7.929916, 9.662631, 1.7), (6.944628, 10.393371, 1.7), (5.8924594, 11.024015, 1.7), (4.783543, 11.548494, 1.7), (3.6285584, 11.961754, 1.7), (2.438629, 12.259816, 1.7), (1.2252142, 12.439809, 1.7), (7.654042e-16, 12.5, 1.7), (-1.2252142, 12.439809, 1.7), (-2.438629, 12.259816, 1.7), (-3.6285584, 11.961754, 1.7), (-4.783543, 11.548494, 1.7), (-5.8924594, 11.024015, 1.7), (-6.944628, 10.393371, 1.7), (-7.929916, 9.662631, 1.7), (-8.838835, 8.838835, 1.7), (-9.662631, 7.929916, 1.7), (-10.393371, 6.944628, 1.7), (-11.024015, 5.8924594, 1.7), (-11.548494, 4.783543, 1.7), (-11.961754, 3.6285584, 1.7), (-12.259816, 2.438629, 1.7), (-12.439809, 1.2252142, 1.7), (-12.5, 1.5308084e-15, 1.7), (-12.439809, -1.2252142, 1.7), (-12.259816, -2.438629, 1.7), (-11.961754, -3.6285584, 1.7), (-11.548494, -4.783543, 1.7), (-11.024015, -5.8924594, 1.7), (-10.393371, -6.944628, 1.7), (-9.662631, -7.929916, 1.7), (-8.838835, -8.838835, 1.7), (-7.929916, -9.662631, 1.7), (-6.944628, -10.393371, 1.7), (-5.8924594, -11.024015, 1.7), (-4.783543, -11.548494, 1.7), (-3.6285584, -11.961754, 1.7), (-2.438629, -12.259816, 1.7), (-1.2252142, -12.439809, 1.7), (-2.2962127e-15, -12.5, 1.7), (1.2252142, -12.439809, 1.7), (2.438629, -12.259816, 1.7), (3.6285584, -11.961754, 1.7), (4.783543, -11.548494, 1.7), (5.8924594, -11.024015, 1.7), (6.944628, -10.393371, 1.7), (7.929916, -9.662631, 1.7), (8.838835, -8.838835, 1.7), (9.662631, -7.929916, 1.7), (10.393371, -6.944628, 1.7), (11.024015, -5.8924594, 1.7), (11.548494, -4.783543, 1.7), (11.961754, -3.6285584, 1.7), (12.259816, -2.438629, 1.7), (12.439809, -1.2252142, 1.7), (12.5, 0, 2), (12.439809, 1.2252142, 2), (12.259816, 2.438629, 2), (11.961754, 3.6285584, 2), (11.548494, 4.783543, 2), (11.024015, 5.8924594, 2), (10.393371, 6.944628, 2), (9.662631, 7.929916, 2), (8.838835, 8.838835, 2), (7.929916, 9.662631, 2), (6.944628, 10.393371, 2), (5.8924594, 11.024015, 2), (4.783543, 11.548494, 2), (3.6285584, 11.961754, 2), (2.438629, 12.259816, 2), (1.2252142, 12.439809, 2), (7.654042e-16, 12.5, 2), (-1.2252142, 12.439809, 2), (-2.438629, 12.259816, 2), (-3.6285584, 11.961754, 2), (-4.783543, 11.548494, 2), (-5.8924594, 11.024015, 2), (-6.944628, 10.393371, 2), (-7.929916, 9.662631, 2), (-8.838835, 8.838835, 2), (-9.662631, 7.929916, 2), (-10.393371, 6.944628, 2), (-11.024015, 5.8924594, 2), (-11.548494, 4.783543, 2), (-11.961754, 3.6285584, 2), (-12.259816, 2.438629, 2), (-12.439809, 1.2252142, 2), (-12.5, 1.5308084e-15, 2), (-12.439809, -1.2252142, 2), (-12.259816, -2.438629, 2), (-11.961754, -3.6285584, 2), (-11.548494, -4.783543, 2), (-11.024015, -5.8924594, 2), (-10.393371, -6.944628, 2), (-9.662631, -7.929916, 2), (-8.838835, -8.838835, 2), (-7.929916, -9.662631, 2), (-6.944628, -10.393371, 2), (-5.8924594, -11.024015, 2), (-4.783543, -11.548494, 2), (-3.6285584, -11.961754, 2), (-2.438629, -12.259816, 2), (-1.2252142, -12.439809, 2), (-2.2962127e-15, -12.5, 2), (1.2252142, -12.439809, 2), (2.438629, -12.259816, 2), (3.6285584, -11.961754, 2), (4.783543, -11.548494, 2), (5.8924594, -11.024015, 2), (6.944628, -10.393371, 2), (7.929916, -9.662631, 2), (8.838835, -8.838835, 2), (9.662631, -7.929916, 2), (10.393371, -6.944628, 2), (11.024015, -5.8924594, 2), (11.548494, -4.783543, 2), (11.961754, -3.6285584, 2), (12.259816, -2.438629, 2), (12.439809, -1.2252142, 2)]
        uniform token subdivisionScheme = "none"
    }
}

