#usda 1.0
(
    defaultPrim = "Building"
    metersPerUnit = 1
    upAxis = "Z"
)

def Xform "Building" (
    assetInfo = {
        asset identifier = @flowave_hall@
        string version = "0.1.0-flowave-placeholder"
    }
    kind = "component"
)
{
    def "Looks"
    {
        def Material "DarkConcreteMat"
        {
            token outputs:mdl:surface.connect = </Building/Looks/DarkConcreteMat/Shader.outputs:out>

            def Shader "Shader"
            {
                uniform token info:implementationSource = "sourceAsset"
                uniform asset info:mdl:sourceAsset = @OmniPBR.mdl@
                uniform token info:mdl:sourceAsset:subIdentifier = "OmniPBR"
                color3f inputs:diffuse_color_constant = (0.45, 0.45, 0.45)
                float inputs:metallic_constant = 0
                float inputs:reflection_roughness_constant = 0.9
                token outputs:out
            }
        }

        def Material "SteelMat"
        {
            token outputs:mdl:surface.connect = </Building/Looks/SteelMat/Shader.outputs:out>

            def Shader "Shader"
            {
                uniform token info:implementationSource = "sourceAsset"
                uniform asset info:mdl:sourceAsset = @OmniPBR.mdl@
                uniform token info:mdl:sourceAsset:subIdentifier = "OmniPBR"
                color3f inputs:diffuse_color_constant = (0.6, 0.6, 0.6)
                float inputs:metallic_constant = 1
                float inputs:reflection_roughness_constant = 0.4
                token outputs:out
            }
        }

        def Material "LightGreyMat"
        {
            token outputs:mdl:surface.connect = </Building/Looks/LightGreyMat/Shader.outputs:out>

            def Shader "Shader"
            {
                uniform token info:implementationSource = "sourceAsset"
                uniform asset info:mdl:sourceAsset = @OmniPBR.mdl@
                uniform token info:mdl:sourceAsset:subIdentifier = "OmniPBR"
                color3f inputs:diffuse_color_constant = (0.85, 0.85, 0.85)
                float inputs:metallic_constant = 0
                float inputs:reflection_roughness_constant = 0.7
                token outputs:out
            }
        }
    }

    def Mesh "Floor" (
        assetInfo = {
            asset identifier = @flowave_hall_floor@
            string version = "0.1.0-flowave-placeholder"
        }
        kind = "component"
    )
    {
        int[] faceVertexCounts = [4, 4, 4, 4, 4, 4]
        int[] faceVertexIndices = [0, 3, 2, 1, 4, 5, 6, 7, 0, 1, 5, 4, 2, 3, 7, 6, 0, 4, 7, 3, 1, 2, 6, 5]
        rel material:binding = </Building/Looks/DarkConcreteMat>
        point3f[] points = [(-30, -30, -0.1), (30, -30, -0.1), (30, 30, -0.1), (-30, 30, -0.1), (-30, -30, 0), (30, -30, 0), (30, 30, 0), (-30, 30, 0)]
        uniform token subdivisionScheme = "none"
    }

    def Mesh "PortalFrame" (
        assetInfo = {
            asset identifier = @flowave_hall_portal_frame@
            string version = "0.1.0-flowave-placeholder"
        }
        kind = "component"
    )
    {
        int[] faceVertexCounts = [4, 4, 4, 4, 4, 4, 4, 4, 4, 4, 4, 4, 4, 4, 4, 4, 4, 4, 4, 4, 4, 4, 4, 4, 4, 4, 4, 4, 4, 4, 4, 4, 4, 4, 4, 4, 4, 4, 4, 4, 4, 4, 4, 4, 4, 4, 4, 4]
        int[] faceVertexIndices = [0, 3, 2, 1, 4, 5, 6, 7, 0, 1, 5, 4, 2, 3, 7, 6, 0, 4, 7, 3, 1, 2, 6, 5, 8, 11, 10, 9, 12, 13, 14, 15, 8, 9, 13, 12, 10, 11, 15, 14, 8, 12, 15, 11, 9, 10, 14, 13, 16, 19, 18, 17, 20, 21, 22, 23, 16, 17, 21, 20, 18, 19, 23, 22, 16, 20, 23, 19, 17, 18, 22, 21, 24, 27, 26, 25, 28, 29, 30, 31, 24, 25, 29, 28, 26, 27, 31, 30, 24, 28, 31, 27, 25, 26, 30, 29, 32, 35, 34, 33, 36, 37, 38, 39, 32, 33, 37, 36, 34, 35, 39, 38, 32, 36, 39, 35, 33, 34, 38, 37, 40, 43, 42, 41, 44, 45, 46, 47, 40, 41, 45, 44, 42, 43, 47, 46, 40, 44, 47, 43, 41, 42, 46, 45, 48, 51, 50, 49, 52, 53, 54, 55, 48, 49, 53, 52, 50, 51, 55, 54, 48, 52, 55, 51, 49, 50, 54, 53, 56, 59, 58, 57, 60, 61, 62, 63, 56, 57, 61, 60, 58, 59, 63, 62, 56, 60, 63, 59, 57, 58, 62, 61]
        rel material:binding = </Building/Looks/SteelMat>
        point3f[] points = [(-25.25, -25.25, 0), (-24.75, -25.25, 0), (-24.75, -24.75, 0), (-25.25, -24.75, 0), (-25.25, -25.25, 12), (-24.75, -25.25, 12), (-24.75, -24.75, 12), (-25.25, -24.75, 12), (24.75, -25.25, 0), (25.25, -25.25, 0), (25.25, -24.75, 0), (24.75, -24.75, 0), (24.75, -25.25, 12), (25.25, -25.25, 12), (25.25, -24.75, 12), (24.75, -24.75, 12), (24.75, 24.75, 0), (25.25, 24.75, 0), (25.25, 25.25, 0), (24.75, 25.25, 0), (24.75, 24.75, 12), (25.25, 24.75, 12), (25.25, 25.25, 12), (24.75, 25.25, 12), (-25.25, 24.75, 0), (-24.75, 24.75, 0), (-24.75, 25.25, 0), (-25.25, 25.25, 0), (-25.25, 24.75, 12), (-24.75, 24.75, 12), (-24.75, 25.25, 12), (-25.25, 25.25, 12), (-25, -25.25, 10), (25, -25.25, 10), (25, -24.75, 10), (-25, -24.75, 10), (-25, -25.25, 11), (25, -25.25, 11), (25, -24.75, 11), (-25, -24.75, 11), (-25, 24.75, 10), (25, 24.75, 10), (25, 25.25, 10), (-25, 25.25, 10), (-25, 24.75, 11), (25, 24.75, 11), (25, 25.25, 11), (-25, 25.25, 11), (-25.25, -25, 10), (-24.75, -25, 10), (-24.75, 25, 10), (-25.25, 25, 10), (-25.25, -25, 11), (-24.75, -25, 11), (-24.75, 25, 11), (-25.25, 25, 11), (24.75, -25, 10), (25.25, -25, 10), (25.25, 25, 10), (24.75, 25, 10), (24.75, -25, 11), (25.25, -25, 11), (25.25, 25, 11), (24.75, 25, 11)]
        uniform token subdivisionScheme = "none"
    }

    def Mesh "Ceiling" (
        assetInfo = {
            asset identifier = @flowave_hall_ceiling@
            string version = "0.1.0-flowave-placeholder"
        }
        kind = "component"
    )
    {
        int[] faceVertexCounts = [4, 4, 4, 4, 4, 4]
        int[] faceVertexIndices = [0, 3, 2, 1, 4, 5, 6, 7, 0, 1, 5, 4, 2, 3, 7, 6, 0, 4, 7, 3, 1, 2, 6, 5]
        rel material:binding = </Building/Looks/LightGreyMat>
        point3f[] points = [(-25, -25, 10), (25, -25, 10), (25, 25, 10), (-25, 25, 10), (-25, -25, 10.1), (25, -25, 10.1), (25, 25, 10.1), (-25, 25, 10.1)]
        uniform token subdivisionScheme = "none"
    }

    def Mesh "CraneBeam" (
        assetInfo = {
            asset identifier = @flowave_hall_crane_beam@
            string version = "0.1.0-flowave-placeholder"
        }
        kind = "component"
    )
    {
        int[] faceVertexCounts = [4, 4, 4, 4, 4, 4]
        int[] faceVertexIndices = [0, 3, 2, 1, 4, 5, 6, 7, 0, 1, 5, 4, 2, 3, 7, 6, 0, 4, 7, 3, 1, 2, 6, 5]
        rel material:binding = </Building/Looks/SteelMat>
        point3f[] points = [(-0.15, -16, 8.75), (0.15, -16, 8.75), (0.15, 16, 8.75), (-0.15, 16, 8.75), (-0.15, -16, 9.25), (0.15, -16, 9.25), (0.15, 16, 9.25), (-0.15, 16, 9.25)]
        uniform token subdivisionScheme = "none"
    }
}

