#usda 1.0
(
    defaultPrim = "Paddle"
    metersPerUnit = 1
    upAxis = "Z"
)

def Xform "Paddle" (
    kind = "component"
)
{
    def Scope "Looks"
    {
        def Material "GRPMat"
        {
            token outputs:mdl:surface.connect = </Paddle/Looks/GRPMat/Shader.outputs:out>

            def Shader "Shader"
            {
                uniform token info:implementationSource = "sourceAsset"
                uniform asset info:mdl:sourceAsset = @OmniPBR.mdl@
                uniform token info:mdl:sourceAsset:subIdentifier = "OmniPBR"
                color3f inputs:diffuse_color_constant = (0.92, 0.92, 0.88)
                float inputs:metallic_constant = 0
                float inputs:reflection_roughness_constant = 0.55
                token outputs:out
            }
        }
    }

    def Mesh "Blade" (
        prepend apiSchemas = ["MaterialBindingAPI"]
    )
    {
        int[] faceVertexCounts = [4, 4, 4, 4, 4, 4, 4, 4, 4, 4, 4, 4, 4, 4, 4, 4, 4, 4, 4, 4, 4, 4, 4, 4, 4, 4, 4, 4, 4, 4, 4, 4, 4, 4, 4, 4, 4, 4, 4, 4, 4, 4, 4, 4, 4, 4, 4, 4, 4, 4, 4, 4, 4, 4, 4, 4, 4, 4, 4, 4, 4, 4, 4, 4, 4, 4, 4, 4, 4, 4, 4, 4, 4, 4, 4, 4, 4, 4, 4, 4, 4, 4, 4, 4, 4, 4, 4, 4]
        int[] faceVertexIndices = [0, 1, 6, 5, 1, 2, 7, 6, 2, 3, 8, 7, 3, 4, 9, 8, 5, 6, 11, 10, 6, 7, 12, 11, 7, 8, 13, 12, 8, 9, 14, 13, 10, 11, 16, 15, 11, 12, 17, 16, 12, 13, 18, 17, 13, 14, 19, 18, 15, 16, 21, 20, 16, 17, 22, 21, 17, 18, 23, 22, 18, 19, 24, 23, 20, 21, 26, 25, 21, 22, 27, 26, 22, 23, 28, 27, 23, 24, 29, 28, 25, 26, 31, 30, 26, 27, 32, 31, 27, 28, 33, 32, 28, 29, 34, 33, 30, 31, 36, 35, 31, 32, 37, 36, 32, 33, 38, 37, 33, 34, 39, 38, 35, 36, 41, 40, 36, 37, 42, 41, 37, 38, 43, 42, 38, 39, 44, 43, 45, 46, 51, 50, 46, 47, 52, 51, 47, 48, 53, 52, 48, 49, 54, 53, 50, 51, 56, 55, 51, 52, 57, 56, 52, 53, 58, 57, 53, 54, 59, 58, 55, 56, 61, 60, 56, 57, 62, 61, 57, 58, 63, 62, 58, 59, 64, 63, 60, 61, 66, 65, 61, 62, 67, 66, 62, 63, 68, 67, 63, 64, 69, 68, 65, 66, 71, 70, 66, 67, 72, 71, 67, 68, 73, 72, 68, 69, 74, 73, 70, 71, 76, 75, 71, 72, 77, 76, 72, 73, 78, 77, 73, 74, 79, 78, 75, 76, 81, 80, 76, 77, 82, 81, 77, 78, 83, 82, 78, 79, 84, 83, 80, 81, 86, 85, 81, 82, 87, 86, 82, 83, 88, 87, 83, 84, 89, 88, 90, 91, 96, 95, 91, 92, 97, 96, 92, 93, 98, 97, 93, 94, 99, 98, 100, 101, 106, 105, 101, 102, 107, 106, 102, 103, 108, 107, 103, 104, 109, 108, 110, 111, 113, 112, 112, 113, 115, 114, 114, 115, 117, 116, 116, 117, 119, 118, 118, 119, 121, 120, 120, 121, 123, 122, 122, 123, 125, 124, 124, 125, 127, 126, 128, 129, 131, 130, 130, 131, 133, 132, 132, 133, 135, 134, 134, 135, 137, 136, 136, 137, 139, 138, 138, 139, 141, 140, 140, 141, 143, 142, 142, 143, 145, 144]
        rel material:binding = </Paddle/Looks/GRPMat>
        uniform token orientation = "rightHanded"
        point3f[] points = [(-0.2335, 0.02, 0), (-0.11675, 0.02, 0), (0, 0.02, 0), (0.11675, 0.02, 0), (0.2335, 0.02, 0), (-0.2335, 0.02, 0.25), (-0.11675, 0.02, 0.25), (0, 0.02, 0.25), (0.11675, 0.02, 0.25), (0.2335, 0.02, 0.25), (-0.2335, 0.02, 0.5), (-0.11675, 0.02, 0.5), (0, 0.02, 0.5), (0.11675, 0.02, 0.5), (0.2335, 0.02, 0.5), (-0.2335, 0.02, 0.75), (-0.11675, 0.02, 0.75), (0, 0.02, 0.75), (0.11675, 0.02, 0.75), (0.2335, 0.02, 0.75), (-0.2335, 0.02, 1), (-0.11675, 0.02, 1), (0, 0.02, 1), (0.11675, 0.02, 1), (0.2335, 0.02, 1), (-0.2335, 0.02, 1.25), (-0.11675, 0.02, 1.25), (0, 0.02, 1.25), (0.11675, 0.02, 1.25), (0.2335, 0.02, 1.25), (-0.2335, 0.02, 1.5), (-0.11675, 0.02, 1.5), (0, 0.02, 1.5), (0.11675, 0.02, 1.5), (0.2335, 0.02, 1.5), (-0.2335, 0.02, 1.75), (-0.11675, 0.02, 1.75), (0, 0.02, 1.75), (0.11675, 0.02, 1.75), (0.2335, 0.02, 1.75), (-0.2335, 0.02, 2), (-0.11675, 0.02, 2), (0, 0.02, 2), (0.11675, 0.02, 2), (0.2335, 0.02, 2), (-0.2335, -0.02, 0), (-0.11675, -0.02, 0), (0, -0.02, 0), (0.11675, -0.02, 0), (0.2335, -0.02, 0), (-0.2335, -0.02, 0.25), (-0.11675, -0.02, 0.25), (0, -0.02, 0.25), (0.11675, -0.02, 0.25), (0.2335, -0.02, 0.25), (-0.2335, -0.02, 0.5), (-0.11675, -0.02, 0.5), (0, -0.02, 0.5), (0.11675, -0.02, 0.5), (0.2335, -0.02, 0.5), (-0.2335, -0.02, 0.75), (-0.11675, -0.02, 0.75), (0, -0.02, 0.75), (0.11675, -0.02, 0.75), (0.2335, -0.02, 0.75), (-0.2335, -0.02, 1), (-0.11675, -0.02, 1), (0, -0.02, 1), (0.11675, -0.02, 1), (0.2335, -0.02, 1), (-0.2335, -0.02, 1.25), (-0.11675, -0.02, 1.25), (0, -0.02, 1.25), (0.11675, -0.02, 1.25), (0.2335, -0.02, 1.25), (-0.2335, -0.02, 1.5), (-0.11675, -0.02, 1.5), (0, -0.02, 1.5), (0.11675, -0.02, 1.5), (0.2335, -0.02, 1.5), (-0.2335, -0.02, 1.75), (-0.11675, -0.02, 1.75), (0, -0.02, 1.75), (0.11675, -0.02, 1.75), (0.2335, -0.02, 1.75), (-0.2335, -0.02, 2), (-0.11675, -0.02, 2), (0, -0.02, 2), (0.11675, -0.02, 2), (0.2335, -0.02, 2), (-0.2335, -0.02, 2), (-0.11675, -0.02, 2), (0, -0.02, 2), (0.11675, -0.02, 2), (0.2335, -0.02, 2), (-0.2335, 0.02, 2), (-0.11675, 0.02, 2), (0, 0.02, 2), (0.11675, 0.02, 2), (0.2335, 0.02, 2), (-0.2335, -0.02, 0), (-0.11675, -0.02, 0), (0, -0.02, 0), (0.11675, -0.02, 0), (0.2335, -0.02, 0), (-0.2335, 0.02, 0), (-0.11675, 0.02, 0), (0, 0.02, 0), (0.11675, 0.02, 0), (0.2335, 0.02, 0), (0.2335, -0.02, 0), (0.2335, 0.02, 0), (0.2335, -0.02, 0.25), (0.2335, 0.02, 0.25), (0.2335, -0.02, 0.5), (0.2335, 0.02, 0.5), (0.2335, -0.02, 0.75), (0.2335, 0.02, 0.75), (0.2335, -0.02, 1), (0.2335, 0.02, 1), (0.2335, -0.02, 1.25), (0.2335, 0.02, 1.25), (0.2335, -0.02, 1.5), (0.2335, 0.02, 1.5), (0.2335, -0.02, 1.75), (0.2335, 0.02, 1.75), (0.2335, -0.02, 2), (0.2335, 0.02, 2), (-0.2335, -0.02, 0), (-0.2335, 0.02, 0), (-0.2335, -0.02, 0.25), (-0.2335, 0.02, 0.25), (-0.2335, -0.02, 0.5), (-0.2335, 0.02, 0.5), (-0.2335, -0.02, 0.75), (-0.2335, 0.02, 0.75), (-0.2335, -0.02, 1), (-0.2335, 0.02, 1), (-0.2335, -0.02, 1.25), (-0.2335, 0.02, 1.25), (-0.2335, -0.02, 1.5), (-0.2335, 0.02, 1.5), (-0.2335, -0.02, 1.75), (-0.2335, 0.02, 1.75), (-0.2335, -0.02, 2), (-0.2335, 0.02, 2)]
        uniform token subdivisionScheme = "none"
    }
}

